<?xml version="1.0" encoding="UTF-8"?>
<svg width="135px" height="157px" viewBox="0 0 135 157" version="1.1" xmlns="http://www.w3.org/2000/svg" xmlns:xlink="http://www.w3.org/1999/xlink">
    <!-- Generator: sketchtool 59.1 (101010) - https://sketch.com -->
    <title>6340760C-FBFC-4659-A01E-8926E99CFF54</title>
    <desc>Created with sketchtool.</desc>
    <g id="Page-1" stroke="none" stroke-width="1" fill="none" fill-rule="evenodd" opacity="0.227004278">
        <g id="Maquette_test" transform="translate(0.000000, -224.000000)" fill="#FFFFFF">
            <g id="HEADER" transform="translate(-13.000000, 0.000000)">
                <path d="M17.85,344.7 C27.7082828,344.7 35.7,352.691717 35.7,362.55 C35.7,372.408283 27.7082828,380.4 17.85,380.4 C7.99171722,380.4 3.55271368e-14,372.408283 3.55271368e-14,362.55 C3.55271368e-14,352.691717 7.99171722,344.7 17.85,344.7 Z M72.25,344.7 C82.1082828,344.7 90.1,352.691717 90.1,362.55 C90.1,372.408283 82.1082828,380.4 72.25,380.4 C62.3917172,380.4 54.4,372.408283 54.4,362.55 C54.4,352.691717 62.3917172,344.7 72.25,344.7 Z M130.05,344.7 C139.908283,344.7 147.9,352.691717 147.9,362.55 C147.9,372.408283 139.908283,380.4 130.05,380.4 C120.191717,380.4 112.2,372.408283 112.2,362.55 C112.2,352.691717 120.191717,344.7 130.05,344.7 Z M17.85,285.2 C27.7082828,285.2 35.7,293.191717 35.7,303.05 C35.7,312.908283 27.7082828,320.9 17.85,320.9 C7.99171722,320.9 3.55271368e-14,312.908283 3.55271368e-14,303.05 C3.55271368e-14,293.191717 7.99171722,285.2 17.85,285.2 Z M72.25,285.2 C82.1082828,285.2 90.1,293.191717 90.1,303.05 C90.1,312.908283 82.1082828,320.9 72.25,320.9 C62.3917172,320.9 54.4,312.908283 54.4,303.05 C54.4,293.191717 62.3917172,285.2 72.25,285.2 Z M130.05,285.2 C139.908283,285.2 147.9,293.191717 147.9,303.05 C147.9,312.908283 139.908283,320.9 130.05,320.9 C120.191717,320.9 112.2,312.908283 112.2,303.05 C112.2,293.191717 120.191717,285.2 130.05,285.2 Z M17.85,224 C27.7082828,224 35.7,231.991717 35.7,241.85 C35.7,251.708283 27.7082828,259.7 17.85,259.7 C7.99171722,259.7 3.55271368e-14,251.708283 3.55271368e-14,241.85 C3.55271368e-14,231.991717 7.99171722,224 17.85,224 Z M72.25,224 C82.1082828,224 90.1,231.991717 90.1,241.85 C90.1,251.708283 82.1082828,259.7 72.25,259.7 C62.3917172,259.7 54.4,251.708283 54.4,241.85 C54.4,231.991717 62.3917172,224 72.25,224 Z M130.05,224 C139.908283,224 147.9,231.991717 147.9,241.85 C147.9,251.708283 139.908283,259.7 130.05,259.7 C120.191717,259.7 112.2,251.708283 112.2,241.85 C112.2,231.991717 120.191717,224 130.05,224 Z" id="Carré_point"></path>
            </g>
        </g>
    </g>
</svg>