<?xml version="1.0" encoding="UTF-8"?>
<svg width="22px" height="19px" viewBox="0 0 22 19" version="1.1" xmlns="http://www.w3.org/2000/svg" xmlns:xlink="http://www.w3.org/1999/xlink">
    <!-- Generator: sketchtool 59.1 (101010) - https://sketch.com -->
    <title>B348C94E-3933-4491-AE12-F12E6246D07E</title>
    <desc>Created with sketchtool.</desc>
    <g id="Page-1" stroke="none" stroke-width="1" fill="none" fill-rule="evenodd">
        <g id="Maquette_test" transform="translate(-1212.000000, -3033.000000)" fill="#FFFFFF" fill-rule="nonzero">
            <g id="CONTACT" transform="translate(0.000000, 2296.000000)">
                <g id="CTA" transform="translate(1177.994837, 721.163890)">
                    <path d="M44.7591812,17.0571814 C45.1290785,16.6470662 45.7614035,16.6144632 46.1715186,16.9843605 L46.1715186,16.9843605 L54.7947964,24.7619985 C55.2395105,25.1631018 55.2343388,25.8624971 54.7837419,26.25698 L54.7837419,26.25698 L46.1604641,33.8063789 C45.7449237,34.170171 45.11315,34.1282207 44.7493579,33.7126803 C44.3855659,33.29714 44.4275162,32.6653662 44.8430565,32.3015742 L44.8430565,32.3015742 L51.0473365,26.8689314 L35.9203365,26.8694374 C35.4075007,26.8694374 34.9848294,26.4833972 34.9270643,25.9860585 L34.9203365,25.8694374 C34.9203365,25.3171526 35.3680518,24.8694374 35.9203365,24.8694374 L35.9203365,24.8694374 L51.9273365,24.8689314 L44.832002,18.4695188 C44.4534342,18.1280752 44.3965335,17.5630245 44.6809538,17.1555473 Z" id="Icon_fleche_CTA"></path>
                </g>
            </g>
        </g>
    </g>
</svg>