<?xml version="1.0" encoding="UTF-8"?>
<svg width="28px" height="28px" viewBox="0 0 28 28" version="1.1" xmlns="http://www.w3.org/2000/svg" xmlns:xlink="http://www.w3.org/1999/xlink">
    <!-- Generator: sketchtool 59.1 (101010) - https://sketch.com -->
    <title>D0D19F82-12BA-410B-ABBC-8070DB6AF926</title>
    <desc>Created with sketchtool.</desc>
    <g id="Page-1" stroke="none" stroke-width="1" fill="none" fill-rule="evenodd">
        <g id="Maquette_test" transform="translate(-415.000000, -897.000000)">
            <g id="HEADER" transform="translate(-13.000000, 0.000000)">
                <g id="Icon_FB" transform="translate(428.000000, 897.000000)">
                    <path d="M17.7364005,7.00291293 L16.0574188,7 C14.1711405,7 12.9521445,8.35232983 12.9521445,10.4454189 L12.9521445,12.0339877 L11.2640035,12.0339877 C11.1181281,12.0339877 11,12.1618655 11,12.3196009 L11,14.6212561 C11,14.7789915 11.1182628,14.9067237 11.2640035,14.9067237 L12.9521445,14.9067237 L12.9521445,20.7145324 C12.9521445,20.8722678 13.0702727,21 13.2161481,21 L15.4186919,21 C15.5645673,21 15.6826955,20.8721222 15.6826955,20.7145324 L15.6826955,14.9067237 L17.656526,14.9067237 C17.8024014,14.9067237 17.9205295,14.7789915 17.9205295,14.6212561 L17.9213377,12.3196009 C17.9213377,12.2438646 17.8934557,12.1713326 17.8440224,12.1177346 C17.7945891,12.0641366 17.7272412,12.0339877 17.6571995,12.0339877 L15.6826955,12.0339877 L15.6826955,10.6873381 C15.6826955,10.0400841 15.8253382,9.71150505 16.6050915,9.71150505 L17.7361312,9.71106811 C17.8818719,9.71106811 18,9.58319029 18,9.42560053 L18,7.28838051 C18,7.1309364 17.8820066,7.00320423 17.7364005,7.00291293 Z" id="Facebook" fill="#353535" fill-rule="nonzero"></path>
                    <circle id="Oval" stroke="#353535" stroke-width="0.75" cx="14" cy="14" r="13.625"></circle>
                </g>
            </g>
        </g>
    </g>
</svg>