<?xml version="1.0" encoding="UTF-8"?>
<svg width="16px" height="10px" viewBox="0 0 16 10" version="1.1" xmlns="http://www.w3.org/2000/svg" xmlns:xlink="http://www.w3.org/1999/xlink">
    <!-- Generator: sketchtool 59.1 (101010) - https://sketch.com -->
    <title>920AEE7E-33B6-4283-99FA-DFC77F4E95D2</title>
    <desc>Created with sketchtool.</desc>
    <g id="Page-1" stroke="none" stroke-width="1" fill="none" fill-rule="evenodd">
        <g id="Maquette_test" transform="translate(-969.000000, -1207.000000)" fill="#262525" fill-rule="nonzero">
            <g id="ARTICLES" transform="translate(313.000000, 927.000000)">
                <g id="3.article" transform="translate(556.000000, 240.000000)">
                    <path d="M115.507472,45.2568447 L115.505829,45.2819734 C115.501837,45.322345 115.491478,45.3608451 115.475769,45.3964553 C115.471477,45.4062462 115.466771,45.4158206 115.461637,45.4252177 C115.454906,45.4374221 115.447529,45.4492794 115.439538,45.4606744 C115.43374,45.4690288 115.427705,45.4769372 115.421317,45.4846453 C115.411119,45.4968891 115.400341,45.5083678 115.388889,45.5191384 C115.3879,45.5200786 115.385885,45.5219454 115.383844,45.5237952 L110.61211,49.8488812 C110.457817,49.988732 110.219366,49.9770242 110.079515,49.8227311 C109.939664,49.668438 109.951372,49.4299872 110.105665,49.2901364 L114.151945,45.6211447 L101,45.6214778 C100.817788,45.6214778 100.665764,45.4922302 100.630605,45.3204126 L100.622945,45.2444228 C100.622945,45.0361811 100.791758,44.8673678 101,44.8673678 L101,44.8673678 L114.240945,44.8671447 L110.087817,40.5712905 C109.943069,40.4215825 109.947089,40.1828784 110.096797,40.0381298 C110.246505,39.8933812 110.485209,39.8974016 110.629958,40.0471095 L115.393558,44.9741743 C115.414244,44.9943038 115.432626,45.016788 115.448273,45.041194 L115.401692,44.9823323 C115.423193,45.00457 115.441401,45.0287511 115.456336,45.0542803 C115.466167,45.0710971 115.474987,45.0892882 115.482324,45.1082192 C115.484529,45.1138945 115.486542,45.1194978 115.488417,45.1251357 C115.500875,45.1624211 115.507675,45.2026278 115.507675,45.2444228 L115.502036,45.1791727 C115.503785,45.1891894 115.505127,45.1992608 115.506062,45.2093603 L115.507675,45.2444228 L115.507675,45.2444228 L115.507472,45.2568447 L115.507472,45.2568447 Z" id="Icon_fleche"></path>
                </g>
            </g>
        </g>
    </g>
</svg>