<?xml version="1.0" encoding="UTF-8"?>
<svg width="18px" height="21px" viewBox="0 0 18 21" version="1.1" xmlns="http://www.w3.org/2000/svg" xmlns:xlink="http://www.w3.org/1999/xlink">
    <!-- Generator: sketchtool 59.1 (101010) - https://sketch.com -->
    <title>D882033E-6689-405F-9C3C-ED89012C8736</title>
    <desc>Created with sketchtool.</desc>
    <g id="Page-1" stroke="none" stroke-width="1" fill="none" fill-rule="evenodd">
        <g id="Maquette_test" transform="translate(-568.000000, -1414.000000)" fill="#FFFFFF" fill-rule="nonzero">
            <g id="ARTICLES" transform="translate(313.000000, 927.000000)">
                <g id="1.article" transform="translate(5.000000, 380.000000)">
                    <g id="Btn" transform="translate(224.000000, 82.000000)">
                        <path d="M35.5,25 C36.0522847,25 36.5,25.4477153 36.5,26 L36.4999864,41.904 L42.2476612,35.3412175 C42.6114967,34.9257152 43.2432748,34.883831 43.6587771,35.2476665 C44.0742794,35.611502 44.1161637,36.2432802 43.7523281,36.6587825 L35.8714583,45.6587825 C35.4769836,46.109275 34.7777097,46.1144459 34.376616,45.6698362 L26.2574858,36.6698362 C25.8875455,36.2597599 25.9200821,35.6274315 26.3301584,35.2574911 C26.7402348,34.8875508 27.3725632,34.9200874 27.7425035,35.3301638 L34.4999864,42.82 L34.5,26 C34.5,25.4477153 34.9477153,25 35.5,25 Z" id="Icon_fleche"></path>
                    </g>
                </g>
            </g>
        </g>
    </g>
</svg>