<?xml version="1.0" encoding="UTF-8"?>
<svg width="37px" height="42px" viewBox="0 0 37 42" version="1.1" xmlns="http://www.w3.org/2000/svg" xmlns:xlink="http://www.w3.org/1999/xlink">
    <!-- Generator: sketchtool 59.1 (101010) - https://sketch.com -->
    <title>2E16C049-79CE-49E9-AEBC-286E63AB143B</title>
    <desc>Created with sketchtool.</desc>
    <g id="Page-1" stroke="none" stroke-width="1" fill="none" fill-rule="evenodd">
        <g id="Maquette_test" transform="translate(-342.000000, -1736.000000)" fill="#FFFFFF">
            <g id="ARTICLES" transform="translate(313.000000, 927.000000)">
                <g id="2.article" transform="translate(5.000000, 789.000000)">
                    <g id="Icon-8" transform="translate(24.000000, 20.148047)">
                        <path d="M13.4645365,-2.13162821e-13 L13.4645365,6.18628079 C13.4645365,7.39703912 12.7066014,8.45473177 11.5337328,8.88150965 C9.29766203,9.69465252 7.79520523,11.8458617 7.79520523,14.233923 C7.79520523,16.8005116 9.52451193,19.0507546 11.9575103,19.7228224 L11.9575103,19.7228224 L18.3343656,13.3184896 C18.6604163,12.9911897 19.0943644,12.8104419 19.5552868,12.8104419 C20.4949672,12.8104419 21.2598302,13.5784348 21.2598302,14.5222904 C21.2598302,14.7461157 21.2167891,14.9643157 21.1317388,15.1721534 L21.1317388,15.1721534 L19.4811442,19.2156628 L23.8008733,19.2156628 C24.2603218,19.2156628 24.6771714,19.3995193 24.9849443,19.6964726 C27.3673842,18.9933179 29.054829,16.7635034 29.054829,14.233923 C29.054829,11.8458617 27.5525196,9.69465252 25.3165962,8.88150965 C24.1434329,8.45473177 23.3856452,7.39703912 23.3856452,6.18628079 L23.3856452,6.18628079 L23.3856452,-2.13162821e-13 L24.8030517,-2.13162821e-13 L24.8030517,6.18628079 C24.8030517,6.79025364 25.1939587,7.32272677 25.7994814,7.54299922 C28.594791,8.55968686 30.472383,11.2488464 30.472383,14.233923 C30.472383,16.9957665 28.8620287,19.4713151 26.4694182,20.6397361 C28.8587859,21.8114138 30.472383,24.2955483 30.472383,27.0443649 C30.472383,30.0294415 28.594791,32.718453 25.7994814,33.7352887 C25.1939587,33.9555612 24.8030517,34.4880343 24.8030517,35.0918591 L24.8030517,35.0918591 L24.8030517,41.2782879 L23.3856452,41.2782879 L23.3856452,35.0918591 C23.3856452,33.8812488 24.1434329,32.8234081 25.3165962,32.3966302 C27.5525196,31.5834874 29.054829,29.4324262 29.054829,27.0443649 C29.054829,24.6499382 27.5259875,22.5055385 25.3313363,21.6956524 C25.2493814,21.862189 25.1423684,22.0162909 25.0105921,22.148632 L25.0105921,22.148632 L17.0984095,30.0948719 C16.7725063,30.4221719 16.3385582,30.6029197 15.8777831,30.6029197 C14.937808,30.6029197 14.1730924,29.8349267 14.1730924,28.8910711 C14.1730924,28.6672459 14.215986,28.4490459 14.3013311,28.2412082 L14.3013311,28.2412082 L15.9517784,24.1975507 L11.6319018,24.1975507 C10.727008,24.1975507 9.98572918,23.4875865 9.92706364,22.5933218 C8.61195331,23.6493861 7.79520523,25.2713789 7.79520523,27.0443649 C7.79520523,29.4324262 9.29766203,31.5834874 11.5337328,32.3966302 C12.7066014,32.8234081 13.4645365,33.8812488 13.4645365,35.0918591 L13.4645365,35.0918591 L13.4645365,41.2782879 L12.0472774,41.2782879 L12.0472774,35.0918591 C12.0472774,34.4880343 11.6560755,33.9555612 11.0507003,33.7352887 C8.25553806,32.718453 6.37794611,30.0294415 6.37794611,27.0443649 C6.37794611,24.2786725 7.96869602,21.8083051 10.3757518,20.6385518 C7.98476271,19.4704269 6.37794611,16.9988752 6.37794611,14.233923 C6.37794611,11.2488464 8.25553806,8.55968686 11.0507003,7.54299922 C11.6560755,7.32272677 12.0472774,6.79025364 12.0472774,6.18628079 L12.0472774,6.18628079 L12.0472774,-2.13162821e-13 L13.4645365,-2.13162821e-13 Z M25.933793,28.2870835 L27.2071889,28.9111888 C26.7187025,29.9167739 25.8757171,30.6792897 24.8340353,31.0586971 C23.7357148,31.4575524 22.8453244,32.2765223 22.3597421,33.3245939 L22.2680814,33.5372063 L20.9531185,33.0075458 C21.5621788,31.4813301 22.8009355,30.2831545 24.3518872,29.7201867 C25.0452607,29.4679392 25.6071528,28.9584111 25.933793,28.2870835 Z M33.420503,28.2870983 L35.6294521,30.5055143 L34.6272738,31.5119876 L32.4183247,29.2934236 L33.420503,28.2870983 Z M3.42982603,28.2870983 L4.43185697,29.2934236 L2.22290792,31.5119876 L1.22072957,30.5055143 L3.42982603,28.2870983 Z M19.5552868,14.233923 C19.4728897,14.233923 19.3953569,14.2664902 19.336544,14.324963 L19.336544,14.324963 L11.4243614,22.2710549 C11.3696757,22.325975 11.3385741,22.4016197 11.3385741,22.4794848 C11.3385741,22.6421726 11.4700557,22.7742176 11.6319018,22.7742176 L11.6319018,22.7742176 L18.0638851,22.7742176 L15.611872,28.781231 C15.5980163,28.8166107 15.5904989,28.854211 15.5904989,28.8910711 C15.5904989,29.1335485 15.9246566,29.2601163 16.0962312,29.0883985 L16.0962312,29.0883985 L24.0085611,21.1423066 C24.0630994,21.0873866 24.0943484,21.0115939 24.0943484,20.9337288 C24.0943484,20.771189 23.9628669,20.639144 23.8008733,20.639144 L23.8008733,20.639144 L17.3690375,20.639144 L19.8210505,14.6321306 C19.8349062,14.5966028 19.8422763,14.5591506 19.8422763,14.5222904 C19.8422763,14.3631554 19.7135953,14.233923 19.5552868,14.233923 Z M36.8500637,19.9273886 L36.8500637,21.3508697 L34.0155455,21.3508697 L34.0155455,19.9273886 L36.8500637,19.9273886 Z M2.83466564,19.9273886 L2.83466564,21.3508697 L1.66533454e-14,21.3508697 L1.66533454e-14,19.9273886 L2.83466564,19.9273886 Z M34.6273032,9.7664039 L35.6294816,10.7727293 L33.4205325,12.9911452 L32.4183542,11.9848199 L34.6273032,9.7664039 Z M2.22290792,9.7664039 L4.43185697,11.9848199 L3.42982603,12.9911452 L1.22072957,10.7727293 L2.22290792,9.7664039 Z M12.9224846,9.76487917 L13.6989923,10.9562452 C13.4007709,11.1518851 13.0827388,11.3209027 12.7506318,11.4596602 L12.499002,11.5579976 L12.0159695,10.2194872 C12.3364189,10.1026895 12.6415386,9.94977184 12.9224846,9.76487917 Z M16.299099,3.55845115 L16.299099,6.1863252 C16.299099,7.30394827 15.9719214,8.37994704 15.3494484,9.31512176 L15.1876966,9.5459242 L14.0484355,8.69947401 C14.5443723,8.02659873 14.8273698,7.24691978 14.8747252,6.43183982 L14.8818399,6.1863252 L14.8818399,3.55845115 L16.299099,3.55845115 Z" id="Icon"></path>
                    </g>
                </g>
            </g>
        </g>
    </g>
</svg>