<?xml version="1.0" encoding="UTF-8"?>
<svg width="30px" height="34px" viewBox="0 0 30 34" version="1.1" xmlns="http://www.w3.org/2000/svg" xmlns:xlink="http://www.w3.org/1999/xlink">
    <!-- Generator: sketchtool 59.1 (101010) - https://sketch.com -->
    <title>82C06E48-F88D-4EE6-97D0-B06BB2CE7F76</title>
    <desc>Created with sketchtool.</desc>
    <g id="Page-1" stroke="none" stroke-width="1" fill="none" fill-rule="evenodd">
        <g id="Maquette_test" transform="translate(-1370.000000, -34.000000)" fill="#9E9E9E" fill-rule="nonzero">
            <g id="HEADER" transform="translate(-13.000000, 0.000000)">
                <g id="NAV" transform="translate(149.000000, 0.000000)">
                    <g id="Icon5" transform="translate(1234.000000, 34.000000)">
                        <path d="M22.75,9.82719249 C22.75,13.0968992 20.9853076,16.1023153 18.5790376,17.6738938 L18.57895,18.1686425 C18.57895,19.1017084 19.0719234,19.8140163 19.6142864,19.8945887 L19.7335841,19.9020075 C19.7567842,19.9026726 19.7801744,19.9045966 19.8036808,19.9078368 L19.8125022,19.9092402 L19.8347528,19.91288 C19.847806,19.9153193 19.8608848,19.9181692 19.8739768,19.9214395 L22.2560928,20.5164831 C26.8459993,21.6519423 29.9,24.8084693 29.9,28.8935125 L29.9,32.8260125 C29.9,33.1849976 29.6089851,33.4760125 29.25,33.4760125 L0.65,33.4760125 C0.291014913,33.4760125 -4.54747351e-13,33.1849976 -4.54747351e-13,32.8260125 L-4.54747351e-13,28.8935125 C-4.54747351e-13,24.8084693 3.05400065,21.6519423 7.64247324,20.5168395 L10.0260232,19.9214395 L10.0650909,19.9129612 C10.0725164,19.9115939 10.0799861,19.9103528 10.0874978,19.9092402 L10.096,19.908 L10.1202842,19.9049828 C10.13573,19.9034325 10.1511143,19.9024462 10.1664159,19.9020075 L10.2857136,19.8945887 C10.8280766,19.8140163 11.32105,19.1017084 11.32105,18.1686425 L11.3209624,17.6738938 C8.92797035,16.1109873 7.16949484,13.1300236 7.15016101,9.88129533 L7.12405131,9.72544497 L7.07000447,9.31196204 C6.92547417,8.04431978 6.93787563,6.68470016 7.21719615,5.39168852 C7.81892522,2.60620512 9.54090728,0.797491911 12.5988883,0.598571093 C13.4009898,0.546247417 14.027412,0.694660915 15.4288908,1.20878891 L16.4851433,1.60229929 L16.979356,1.77499195 C17.7151319,2.01909529 18.273496,2.13639249 18.7733,2.13639249 C19.4685083,2.13639249 20.1370612,1.8070536 20.7522215,1.24060606 C20.9769301,1.03369153 21.1772179,0.810454785 21.348972,0.587783464 L21.4534539,0.447682909 L21.6043615,0.229403636 C21.9774476,-0.221069193 22.75,0.029937295 22.75,0.651208769 L22.75,9.82719249 L22.75,9.82719249 Z M9.56094523,21.3769054 L7.95609282,21.7784419 C3.90056159,22.7817065 1.3,25.4695719 1.3,28.8935125 L1.3,32.1760125 L13.019153,32.1773885 C11.2266463,29.8250296 9.77561468,24.7873043 9.56094523,21.3769054 Z M18.4936741,24.6487656 L18.3268682,24.7873009 C17.4008801,25.5265801 16.2270622,25.9685125 14.95,25.9685125 C13.5949884,25.9685125 12.3562093,25.4709842 11.4063731,24.6486378 C12.239757,28.2595387 13.8113175,32.1761425 14.95,32.1761425 C16.0886825,32.1761425 17.660243,28.2595387 18.4936741,24.6487656 Z M16.880847,32.1773885 L28.6,32.1760125 L28.6,28.8935125 C28.6,25.4695719 25.9994384,22.7817065 21.9424732,21.7780855 L20.3390548,21.3769054 C20.1243853,24.7873043 18.6733537,29.8250296 16.880847,32.1773885 Z M14.95,18.8186425 C14.1527864,18.8186425 13.3658852,18.6539089 12.6163862,18.3526516 L12.6173059,18.3386067 C12.5604877,19.6256665 11.8620604,20.7310209 10.8685091,21.0842886 C11.1283311,23.1060822 12.8566439,24.6685125 14.95,24.6685125 C17.0433561,24.6685125 18.7716689,23.1060822 19.0324354,21.0837249 L19.0507577,21.091032 C18.0998088,20.7634736 17.4151322,19.748829 17.2970727,18.5415234 L17.2836138,18.3526516 C16.5341148,18.6539089 15.7472136,18.8186425 14.95,18.8186425 Z M18.525,6.90219249 L11.375,6.90219249 C9.76814271,6.90219249 8.45,8.22016994 8.45,9.82719249 C8.45,12.7258915 10.0674005,15.3789422 12.1770088,16.6787142 C12.2193183,16.6904633 12.2604073,16.7091929 12.3005289,16.7327857 C13.0850027,17.1940822 13.8971167,17.4601055 14.6810578,17.5100256 C14.6858018,17.5109034 14.6901234,17.5111539 14.6944453,17.5113982 L14.6810578,17.5100256 C14.7711051,17.5157597 14.8607807,17.5186425 14.95,17.5186425 L15.2055547,17.5113982 C15.2098766,17.5111539 15.2141982,17.5109034 15.2185196,17.5106468 C16.0028833,17.4601055 16.8149973,17.1940822 17.5994711,16.7327857 C17.6395927,16.7091929 17.6806817,16.6904633 17.7222152,16.6762975 C19.8325995,15.3789422 21.45,12.7258915 21.45,9.82719249 L21.449,9.821 L21.4459233,9.67232614 C21.4411411,9.58171713 21.4321841,9.49219032 21.4192448,9.40393146 C21.3323859,8.8127329 21.0663565,8.27687528 20.6785908,7.85422052 C20.5415092,7.70480944 20.3892819,7.56971319 20.224474,7.45128647 C20.2232478,7.45023892 20.2215877,7.44904758 20.2199264,7.44785792 C20.0513545,7.32741374 19.8700938,7.22439435 19.6785239,7.14134837 C19.6529982,7.13005182 19.6274043,7.11939104 19.6016334,7.10908774 C19.5370613,7.08348631 19.4712966,7.05987453 19.4045305,7.03861169 C19.3766215,7.02953734 19.3482438,7.02097948 19.3196924,7.01284768 C19.0663401,6.94081446 18.7997484,6.90219249 18.525,6.90219249 Z M20.4806162,6.08451929 L20.5226758,6.1078579 C20.5350734,6.11456949 20.5474345,6.1213416 20.5597586,6.12817383 C20.8848785,6.30718719 21.1836013,6.52832 21.4492213,6.78366403 L21.4498259,2.35893071 C20.6596197,3.03075976 19.7644733,3.43639249 18.7733,3.43639249 C18.1132046,3.43639249 17.4383782,3.29608231 16.5892069,3.0152837 L16.2622836,2.90339848 L14.78334,2.35768913 L14.3577155,2.20926793 C13.5691086,1.94431985 13.1355898,1.86632338 12.6833931,1.89582162 C10.2633811,2.05324273 8.9763279,3.40512106 8.48788521,5.66618685 C8.39914165,6.07699252 8.34108713,6.49992909 8.30931091,6.92644666 L8.32190441,6.91320398 C8.34424338,6.8898137 8.36684661,6.86667774 8.38970919,6.84380101 L8.30931091,6.92644666 C8.38505351,6.8464582 8.46387222,6.76940901 8.54557283,6.69549321 C8.57122344,6.67228768 8.59709053,6.64944922 8.62323424,6.62692398 C8.64673481,6.60667478 8.67056229,6.58659345 8.69461086,6.5667718 C8.72139746,6.54469299 8.74848654,6.52291426 8.7758444,6.50146444 C8.80763665,6.47654146 8.83954986,6.45224152 8.87181127,6.42838847 C8.89823553,6.4088506 8.92494797,6.38957409 8.95188982,6.37060378 C8.97609451,6.35356133 9.00042741,6.33680437 9.02494088,6.3202971 C9.07073336,6.28945618 9.11739836,6.25933689 9.16467549,6.2301226 C9.1737664,6.22450643 9.18245407,6.21918252 9.19116216,6.21388918 C9.23788392,6.18548179 9.28559049,6.15773358 9.33387069,6.13090391 C9.35388687,6.11978307 9.37367133,6.10899673 9.39354955,6.09836477 C9.44163365,6.07264158 9.49058458,6.0476671 9.54006783,6.02363116 C9.5546343,6.01655647 9.56907238,6.00964543 9.58355492,6.00281436 C9.64646934,5.97313611 9.71037591,5.94490406 9.77507773,5.91823626 C9.80009536,5.90792677 9.82497733,5.89795036 9.84997313,5.8882058 C9.89389832,5.87108142 9.93819329,5.85466658 9.98282549,5.83898281 C10.0047415,5.83128016 10.0269574,5.82368104 10.0492546,5.81626347 C10.0990953,5.79968595 10.1491259,5.78407844 10.1995391,5.76938992 C10.2151966,5.76482669 10.2311729,5.76027359 10.2471868,5.75581296 C10.3042111,5.73993112 10.3615667,5.7252559 10.4193692,5.711775 C10.4372423,5.70760779 10.4548936,5.7036128 10.4725857,5.69972945 C10.5168807,5.69000503 10.5615885,5.6809511 10.6065408,5.67261427 C10.6452484,5.66543427 10.6842719,5.6587649 10.7234701,5.6526389 C10.7526153,5.64808392 10.7818687,5.64382778 10.8112153,5.63987558 C10.8513205,5.63447632 10.8914105,5.62966467 10.9316648,5.62542365 C10.9690579,5.62147977 11.0070693,5.61799096 11.0452191,5.61501398 C11.0830001,5.61206727 11.120751,5.60963102 11.1586299,5.60769899 C11.2304324,5.60403979 11.3025098,5.60219249 11.375,5.60219249 L18.525,5.60219249 C18.6043119,5.60219249 18.6831288,5.60440275 18.7613923,5.60876476 L18.525,5.60219249 C18.6108163,5.60219249 18.6960722,5.60478677 18.7806915,5.60990296 C18.8504628,5.61409075 18.9199517,5.62002511 18.9889518,5.62763593 C19.0079544,5.62979326 19.0269912,5.63202962 19.0459907,5.63439354 C19.0951576,5.64042711 19.1440639,5.64738323 19.1926989,5.65517593 C19.224478,5.66039099 19.2561636,5.66585461 19.2877312,5.67167261 C19.3352539,5.68026792 19.3826266,5.68983632 19.4297104,5.70019519 C19.4492485,5.70470144 19.4685697,5.7091057 19.4878417,5.71364311 C19.5455678,5.72698506 19.6029267,5.74176403 19.6598088,5.75770988 C19.6744679,5.76212906 19.6890817,5.76631941 19.7036639,5.77058689 C19.9155974,5.83217228 20.1208147,5.91035151 20.3177978,6.00332784 C20.3231904,6.00660679 20.3287868,6.00926774 20.3343765,6.01194069 L20.4806162,6.08451929 L20.4806162,6.08451929 Z" id="Combined-Shape"></path>
                    </g>
                </g>
            </g>
        </g>
    </g>
</svg>