<?xml version="1.0" encoding="UTF-8"?>
<svg width="33px" height="31px" viewBox="0 0 33 31" version="1.1" xmlns="http://www.w3.org/2000/svg" xmlns:xlink="http://www.w3.org/1999/xlink">
    <!-- Generator: sketchtool 59.1 (101010) - https://sketch.com -->
    <title>CF175C93-7B2D-43FA-B872-C5581E0F543E</title>
    <desc>Created with sketchtool.</desc>
    <g id="Page-1" stroke="none" stroke-width="1" fill="none" fill-rule="evenodd" stroke-linecap="round" stroke-linejoin="round">
        <g id="Maquette_test" transform="translate(-374.000000, -37.000000)" stroke="#FFFFFF" stroke-width="1.3">
            <g id="HEADER" transform="translate(-13.000000, 0.000000)">
                <g id="NAV" transform="translate(149.000000, 0.000000)">
                    <g id="Icon1" transform="translate(239.000000, 38.000000)">
                        <path d="M1.6055,8.166015 C2.4921,8.166015 3.2123,8.886215 3.2123,9.772815 L3.2123,14.265615 C3.7024,13.826215 4.55585,13.677365 5.42425,14.315015 C6.12495,14.827865 10.42145,19.001515 11.34055,19.920615 C12.7062,21.286265 13.31525,22.791665 13.31525,24.802115 C13.8795842,24.819482 14.33211,25.2826429 14.33211,25.850955 L14.33211,25.850955 L14.33211,28.599805 L6.08556,28.599805 L6.08556,25.850955 C6.08556,25.271805 6.55551,24.801855 7.13531,24.801855 L7.102,24.803 L7.10255,24.802115 C7.10255,24.250265 6.8874,23.731565 6.49805,23.341565 L1.45405,19.337565 C0.4745,18.358015 -1.46549439e-13,17.197765 -1.46549439e-13,15.786615 L-1.46549439e-13,9.772815 C-1.46549439e-13,8.886215 0.7202,8.166015 1.6055,8.166015 Z M29.658525,8.166015 C30.543825,8.166015 31.264675,8.886215 31.264675,9.772815 L31.264675,15.786615 C31.264675,17.197765 30.789525,18.358015 29.812575,19.334965 L24.764025,23.344165 C24.376625,23.731565 24.161475,24.250265 24.161475,24.802115 L24.161,24.803 L24.2432986,24.8080141 C24.7692813,24.8650003 25.17866,25.310415 25.17866,25.850955 L25.17866,28.599805 L16.93211,28.599805 L16.93211,25.850955 C16.93211,25.2828844 17.3842513,24.8198757 17.9480942,24.8023684 L17.948775,24.802115 C17.948775,22.791665 18.557825,21.286265 19.923475,19.920615 C20.843225,19.001515 25.139725,14.827865 25.839775,14.315015 C26.708175,13.676715 27.560975,13.825565 28.051725,14.265615 L28.051725,9.772815 C28.051725,8.886215 28.772575,8.166015 29.658525,8.166015 Z M1.6055,8.231015 C0.75595,8.231015 0.06435,8.922615 0.06435,9.772815 L0.06435,15.786615 C0.06435,17.178915 0.533,18.324865 1.49695,19.288815 L6.54095,23.293465 C6.9381,23.690615 7.1591,24.212565 7.16755,24.769615 L13.25025,24.769615 C13.24375,22.794265 12.6399,21.311615 11.29505,19.966115 C10.3766,19.047665 6.08335,14.878565 5.38655,14.367015 C4.75865,13.906815 3.84085,13.726765 3.20255,14.363765 C2.91265,14.653665 2.75275,15.040415 2.75275,15.453815 C2.75275,15.867215 2.91265,16.253315 3.20255,16.543865 L6.10545,19.447415 L6.05995,19.492915 L3.15705,16.589365 C2.85415,16.287115 2.68775,15.884115 2.68775,15.453815 C2.68775,15.028065 2.8509,14.628315 3.1473,14.328015 L3.1473,9.772815 C3.1473,8.922615 2.4557,8.231015 1.6055,8.231015 Z M29.658525,8.231015 C28.808325,8.231015 28.116725,8.922615 28.116725,9.772815 L28.116725,14.328015 C28.413125,14.628315 28.576275,15.028065 28.576275,15.453815 C28.576275,15.884115 28.409875,16.287115 28.106975,16.589365 L25.204725,19.492915 L25.158575,19.447415 L28.061475,16.543865 C28.351375,16.253315 28.511275,15.867215 28.511275,15.453815 C28.511275,15.040415 28.351375,14.653665 28.061475,14.363765 C27.423825,13.726765 26.505375,13.906815 25.878125,14.367015 C25.180675,14.878565 20.888075,19.047665 19.969625,19.966115 C18.624125,21.311615 18.020925,22.794265 18.013775,24.769615 L24.096475,24.769615 C24.104925,24.212565 24.325925,23.690615 24.720475,23.295415 L29.769675,19.286215 C30.731025,18.324865 31.199675,17.178915 31.199675,15.786615 L31.199675,9.772815 C31.199675,8.922615 30.508725,8.231015 29.658525,8.231015 Z M18.931965,4.4408921e-15 C21.058115,4.4408921e-15 22.781915,1.7238 22.781915,3.84995 C22.781915,7.4646 16.821415,11.20275 15.785315,11.8261 C15.689765,11.88265 15.574065,11.88265 15.479165,11.8261 C14.442415,11.20275 8.481915,7.4646 8.481915,3.84995 C8.481915,1.7238 10.205715,4.4408921e-15 12.331865,4.4408921e-15 C13.582465,4.4408921e-15 14.690715,0.598 15.393365,1.52165 C15.514915,1.68155 15.749565,1.68155 15.871115,1.52165 C16.573765,0.598 17.682015,4.4408921e-15 18.931965,4.4408921e-15 Z" id="Combined-Shape"></path>
                    </g>
                </g>
            </g>
        </g>
    </g>
</svg>