<?xml version="1.0" encoding="UTF-8"?>
<svg width="20px" height="21px" viewBox="0 0 20 21" version="1.1" xmlns="http://www.w3.org/2000/svg" xmlns:xlink="http://www.w3.org/1999/xlink">
    <!-- Generator: sketchtool 59.1 (101010) - https://sketch.com -->
    <title>95E4385A-72D3-4925-AEFF-AD359B320FCD</title>
    <desc>Created with sketchtool.</desc>
    <g id="Page-1" stroke="none" stroke-width="1" fill="none" fill-rule="evenodd">
        <g id="Maquette_test" transform="translate(-1842.000000, -52.000000)" fill="#FFFFFF" fill-rule="nonzero">
            <g id="HEADER" transform="translate(-13.000000, 0.000000)">
                <g id="NAV" transform="translate(149.000000, 0.000000)">
                    <g id="Search" transform="translate(1647.000000, 0.000000)">
                        <g id="Icon_search" transform="translate(59.000000, 52.000000)">
                            <path d="M8.712,7.10542736e-15 C13.5235047,7.10542736e-15 17.424,3.90049526 17.424,8.712 C17.424,10.9499986 16.5801261,12.9908999 15.1932167,14.5338656 L19.6383691,19.6093658 C19.9265838,19.9383937 19.8934981,20.4387677 19.5644702,20.7269824 C19.2354422,21.0151971 18.7350682,20.9821114 18.4468535,20.6530834 L18.4468535,20.6530834 L14.0308406,15.6124556 C12.5594106,16.7483023 10.7146141,17.424 8.712,17.424 C3.90049526,17.424 1.13686838e-13,13.5235047 1.13686838e-13,8.712 C1.13686838e-13,3.90049526 3.90049526,7.10542736e-15 8.712,7.10542736e-15 Z M8.712,1.584 C4.7753143,1.584 1.584,4.7753143 1.584,8.712 C1.584,12.6486857 4.7753143,15.84 8.712,15.84 C12.6486857,15.84 15.84,12.6486857 15.84,8.712 C15.84,4.7753143 12.6486857,1.584 8.712,1.584 Z" id="Combined-Shape"></path>
                        </g>
                    </g>
                </g>
            </g>
        </g>
    </g>
</svg>