<?xml version="1.0" encoding="UTF-8"?>
<svg width="28px" height="28px" viewBox="0 0 28 28" version="1.1" xmlns="http://www.w3.org/2000/svg" xmlns:xlink="http://www.w3.org/1999/xlink">
    <!-- Generator: sketchtool 59.1 (101010) - https://sketch.com -->
    <title>2CE79512-CA90-40D6-A6F0-E9CF40DDDF9E</title>
    <desc>Created with sketchtool.</desc>
    <g id="Page-1" stroke="none" stroke-width="1" fill="none" fill-rule="evenodd">
        <g id="Maquette_test" transform="translate(-986.000000, -3612.000000)">
            <g id="FOOTER" transform="translate(0.000000, 3275.000000)">
                <g id="Icon_Insta" transform="translate(986.000000, 337.000000)">
                    <circle id="Oval" stroke="#FFFFFF" stroke-width="0.75" cx="14" cy="14" r="13.625"></circle>
                    <path d="M17.9195625,11.0747656 C17.2957969,11.0747656 16.7884336,10.5674023 16.7884336,9.94363672 C16.7884336,9.31984375 17.2957969,8.81239844 17.9195625,8.81239844 C18.5433281,8.81239844 19.0508008,9.31984375 19.0508008,9.94363672 C19.0508008,10.5674023 18.5433281,11.0747656 17.9195625,11.0747656 M14,17.828043 C11.8891992,17.828043 10.1719844,16.1108281 10.1719844,14 C10.1719844,11.8891992 11.8891992,10.1719844 14,10.1719844 C16.1108281,10.1719844 17.8280156,11.8891992 17.8280156,14 C17.8280156,16.1108281 16.1108281,17.828043 14,17.828043 M17.2103477,7 L10.7896797,7 C8.70001563,7 7,8.70001563 7,10.7896797 L7,17.210457 C7,19.3000117 8.70001563,21 10.7896797,21 L17.2104297,21 C19.2999844,21 21,19.3000117 21,17.210457 L21,10.7896797 C21,8.70001563 19.2999844,7 17.2103477,7" id="Fill-1" fill="#FFFFFF"></path>
                </g>
            </g>
        </g>
    </g>
</svg>