<?xml version="1.0" encoding="UTF-8"?>
<svg width="30px" height="29px" viewBox="0 0 30 29" version="1.1" xmlns="http://www.w3.org/2000/svg" xmlns:xlink="http://www.w3.org/1999/xlink">
    <!-- Generator: sketchtool 59.1 (101010) - https://sketch.com -->
    <title>D943CD0C-6574-401E-BBEC-648926D78C89</title>
    <desc>Created with sketchtool.</desc>
    <g id="Page-1" stroke="none" stroke-width="1" fill="none" fill-rule="evenodd">
        <g id="Maquette_test" transform="translate(-1162.000000, -38.000000)">
            <g id="HEADER" transform="translate(-13.000000, 0.000000)">
                <g id="NAV" transform="translate(149.000000, 0.000000)">
                    <g id="Icon4" transform="translate(1026.000000, 38.000000)">
                        <path d="M23.43078,16.2378 C23.78418,16.2378 24.10158,16.2894 24.38358,16.3926 C24.66558,16.4958 24.93018,16.6464 25.17798,16.8432 L24.72378,17.4828 C24.50418,17.322 24.28578,17.1996 24.07098,17.1144 C23.85498,17.0298 23.63718,16.9872 23.41758,16.9872 C23.16978,16.9872 22.97718,17.0424 22.83918,17.1522 C22.70238,17.262 22.63338,17.3976 22.63338,17.5584 L22.63338,17.5716 C22.63338,17.6634 22.64898,17.7456 22.68138,17.8164 C22.71318,17.8872 22.77258,17.9514 22.85718,18.009 C22.94238,18.066 23.05938,18.12 23.20878,18.1704 C23.35818,18.2214 23.54838,18.2736 23.77818,18.3282 C24.03018,18.393 24.25458,18.4638 24.45018,18.5418 C24.64578,18.6198 24.80718,18.7146 24.93558,18.8268 C25.06458,18.9396 25.16238,19.0704 25.22958,19.2192 C25.29618,19.3686 25.32918,19.5414 25.32918,19.7382 L25.32918,19.752 C25.32918,19.977 25.28658,20.1786 25.20318,20.3574 C25.11918,20.5362 25.00218,20.6874 24.85158,20.811 C24.70158,20.9346 24.52158,21.0288 24.31098,21.0936 C24.10038,21.1572 23.86878,21.1896 23.61678,21.1896 C23.24538,21.1896 22.89018,21.1266 22.55058,21.0006 C22.21098,20.8746 21.89778,20.6808 21.60858,20.4198 L22.11738,19.8138 C22.35138,20.016 22.58718,20.1708 22.82598,20.2782 C23.06418,20.3856 23.33478,20.4396 23.63718,20.4396 C23.89878,20.4396 24.10578,20.3844 24.25998,20.2752 C24.41298,20.1648 24.49038,20.0184 24.49038,19.8342 L24.49038,19.821 C24.49038,19.7334 24.47538,19.6572 24.44598,19.5906 C24.41538,19.524 24.36018,19.461 24.27978,19.4016 C24.19938,19.3422 24.08898,19.2864 23.94858,19.236 C23.80878,19.1856 23.62638,19.1352 23.40078,19.0848 C23.14338,19.0254 22.91418,18.9576 22.71438,18.882 C22.51458,18.8064 22.34718,18.7146 22.21098,18.6072 C22.07598,18.4992 21.97278,18.3678 21.90138,18.2112 C21.82938,18.0558 21.79458,17.868 21.79458,17.6478 L21.79458,17.634 C21.79458,17.427 21.83538,17.238 21.91698,17.0664 C21.99918,16.8948 22.11138,16.7478 22.25418,16.6266 C22.39818,16.5048 22.57038,16.4094 22.77198,16.341 C22.97298,16.272 23.19258,16.2378 23.43078,16.2378 Z M17.83974,16.29318 L19.02294,19.87578 L20.17134,16.30638 L21.05874,16.30638 L19.38054,21.15498 L18.65094,21.15498 L17.46774,17.69598 L16.28574,21.15498 L15.55614,21.15498 L13.87794,16.30638 L14.79234,16.30638 L15.94134,19.87578 L17.12454,16.29318 L17.83974,16.29318 Z M4.99062,16.30638 L7.56462,19.63518 L7.56462,16.30638 L8.40342,16.30638 L8.40342,21.12078 L7.69662,21.12078 L5.04702,17.69598 L5.04702,21.12078 L4.20822,21.12078 L4.20822,16.30638 L4.99062,16.30638 Z M13.20378,16.30638 L13.20378,17.06958 L10.48038,17.06958 L10.48038,18.30798 L12.89478,18.30798 L12.89478,19.07118 L10.48038,19.07118 L10.48038,20.35758 L13.23798,20.35758 L13.23798,21.12078 L9.64158,21.12078 L9.64158,16.30638 L13.20378,16.30638 Z" id="Combined-Shape" fill="#9E9E9E"></path>
                        <path d="M29.4,9.71988 C29.7313708,9.71988 30,9.98850915 30,10.31988 L30,24.71988 C30,27.0390508 28.1191708,28.91988 25.8,28.91988 L4.2,28.91988 C1.88042089,28.91988 1.13686838e-13,27.0392426 1.13686838e-13,24.71988 L1.13686838e-13,10.31988 C1.13686838e-13,9.98850915 0.26862915,9.71988 0.6,9.71988 L29.4,9.71988 Z M1.2,10.91988 L1.2,24.71988 C1.2,26.3765318 2.54319352,27.71988 4.2,27.71988 L25.8,27.71988 C27.4564292,27.71988 28.8,26.3763092 28.8,24.71988 L28.8,10.91988 L1.2,10.91988 Z" id="Stroke-6" fill="#9E9E9E" fill-rule="nonzero"></path>
                        <path d="M6.35976,3.55271368e-15 C7.48613085,3.55271368e-15 8.39976,0.91362915 8.39976,2.04 L8.39976,4.2 C8.39976,5.2537931 7.59762936,6.13112182 6.52687998,6.23273463 L6.35976,6.24 C5.23322055,6.24 4.31976,5.32680232 4.31976,4.2 L4.31976,2.04 C4.31976,0.91362915 5.23338915,3.55271368e-15 6.35976,3.55271368e-15 Z M6.35976,1.2 C5.89613085,1.2 5.51976,1.57637085 5.51976,2.04 L5.51976,4.2 C5.51976,4.66398329 5.89588494,5.04 6.33127629,5.04067648 L6.44133171,5.03613091 C6.86925698,4.99524664 7.19976,4.63375965 7.19976,4.2 L7.19976,2.04 C7.19976,1.57637085 6.82338915,1.2 6.35976,1.2 Z" id="Stroke-14" fill="#9E9E9E" fill-rule="nonzero"></path>
                        <path d="M23.63964,3.55271368e-15 C24.7660108,3.55271368e-15 25.67964,0.91362915 25.67964,2.04 L25.67964,4.2 C25.67964,5.2537931 24.8775094,6.13112182 23.80676,6.23273463 L23.63964,6.24 C22.5131377,6.24 21.60024,5.32683941 21.60024,4.2 L21.60024,2.04 C21.60024,0.913591997 22.5133062,3.55271368e-15 23.63964,3.55271368e-15 Z M23.63964,1.2 C23.1762026,1.2 22.80024,1.57617909 22.80024,2.04 L22.80024,4.2 C22.80024,4.66417504 23.1759568,5.04 23.6111563,5.04067648 L23.7212117,5.03613091 C24.149137,4.99524664 24.47964,4.63375965 24.47964,4.2 L24.47964,2.04 C24.47964,1.57637085 24.1032692,1.2 23.63964,1.2 Z" id="Stroke-16" fill="#9E9E9E" fill-rule="nonzero"></path>
                        <path d="M25.8,3.11988 L25.08,3.11988 L25.08,4.19988 C25.08,4.99548 24.435,5.63988 23.6394,5.63988 C22.8444,5.63988 22.2,4.99548 22.2,4.19988 L22.2,3.11988 L7.8,3.11988 L7.8,4.19988 C7.8,4.99548 7.155,5.63988 6.36,5.63988 C5.5644,5.63988 4.9194,4.99548 4.9194,4.19988 L4.9194,3.11988 L4.2,3.11988 C2.2116,3.11988 0.6,4.73208 0.6,6.71988 L0.6,10.31988 L29.4,10.31988 L29.4,6.71988 C29.4,4.73208 27.7878,3.11988 25.8,3.11988 Z" id="Stroke-12" stroke="#9E9E9E" stroke-width="1.2" stroke-linecap="round" stroke-linejoin="round"></path>
                    </g>
                </g>
            </g>
        </g>
    </g>
</svg>