<?xml version="1.0" encoding="UTF-8"?>
<svg width="25px" height="30px" viewBox="0 0 25 30" version="1.1" xmlns="http://www.w3.org/2000/svg" xmlns:xlink="http://www.w3.org/1999/xlink">
    <!-- Generator: sketchtool 59.1 (101010) - https://sketch.com -->
    <title>5E41A2E4-2FDC-4F01-9320-CE261C31B412</title>
    <desc>Created with sketchtool.</desc>
    <g id="Page-1" stroke="none" stroke-width="1" fill="none" fill-rule="evenodd">
        <g id="Maquette_test" transform="translate(-1582.000000, -38.000000)" fill="#9E9E9E" fill-rule="nonzero">
            <g id="HEADER" transform="translate(-13.000000, 0.000000)">
                <g id="NAV" transform="translate(149.000000, 0.000000)">
                    <g id="Icon6" transform="translate(1446.000000, 38.000000)">
                        <path d="M4.0495,-1.0658141e-14 L15.3515,-1.0658141e-14 C17.5200374,-1.0658141e-14 19.2907208,1.70480429 19.3960437,3.84738881 L19.401,4.0495 L19.4,6.031 L19.40115,6.04245 L19.4010266,6.05367089 L19.4010266,6.05367089 L19.4,8.313 L20.91125,8.31345 C22.9853924,8.31345 24.66625,9.99430763 24.66625,12.06845 L24.66625,15.36845 C24.66625,17.4425924 22.9853924,19.12345 20.91125,19.12345 L19.4,19.123 L19.4,22.531 L19.40115,22.54245 L19.4010266,22.5536709 L19.4010266,22.5536709 L19.401,25.5405 C19.401,27.7088091 17.6959469,29.4792368 15.5535886,29.5845444 L15.3515,29.5895 L4.0495,29.5895 C1.88104816,29.5895 0.110284369,27.8847787 0.00495658423,25.7425746 L-7.95807864e-13,25.5405 L-7.95807864e-13,4.0495 C-7.95807864e-13,1.88079155 1.70497018,0.110268817 3.84740389,0.00495587732 L4.0495,-1.0658141e-14 L15.3515,-1.0658141e-14 Z M18.4,23.042 L0.999,23.042 L1,25.5405 C1,27.1641069 2.26972945,28.4915752 3.87034039,28.5843235 L4.0495,28.5895 L15.3515,28.5895 C16.9753328,28.5895 18.3030563,27.3200176 18.3958225,25.7196344 L18.401,25.5405 L18.4,23.042 Z M10.9201,25.16205 C11.1962424,25.16205 11.4201,25.3859076 11.4201,25.66205 C11.4201,25.9381924 11.1962424,26.16205 10.9201,26.16205 L10.9201,26.16205 L8.4811,26.16205 C8.20495763,26.16205 7.9811,25.9381924 7.9811,25.66205 C7.9811,25.3859076 8.20495763,25.16205 8.4811,25.16205 L8.4811,25.16205 Z M18.4,6.542 L0.999,6.542 L0.999,22.042 L18.4,22.042 L18.4,19.123 L16.2679808,19.12345 L13.4411359,21.2926227 C13.1122442,21.5449969 12.63675,21.310513 12.63675,20.89595 L12.63675,18.7920012 L12.4499184,18.7018681 C11.2250567,18.0686266 10.42025,16.7963662 10.42025,15.36845 L10.42025,12.06845 C10.42025,9.99448602 12.1009293,8.31345 14.17425,8.31345 L18.4,8.313 L18.4,6.542 Z M20.91125,9.31345 L14.17425,9.31345 C12.6532615,9.31345 11.42025,10.5467233 11.42025,12.06845 L11.42025,15.36845 C11.42025,16.5595593 12.1839166,17.6031964 13.2962429,17.9775703 C13.4997079,18.0460501 13.63675,18.23677 13.63675,18.45145 L13.63675,19.8820337 L15.7938641,18.2267773 C15.8811871,18.1597702 15.9881807,18.12345 16.09825,18.12345 L20.91125,18.12345 C22.4331076,18.12345 23.66625,16.8903076 23.66625,15.36845 L23.66625,12.06845 C23.66625,10.5465924 22.4331076,9.31345 20.91125,9.31345 Z M15.3515,1 L4.0495,1 C2.42560312,1 1.09793913,2.26954415 1.00517728,3.87032053 L1,4.0495 L0.999,5.542 L18.4,5.542 L18.401,4.0495 C18.401,2.42547501 17.1313323,1.09792998 15.5306662,1.00517679 L15.3515,1 Z" id="Combined-Shape"></path>
                    </g>
                </g>
            </g>
        </g>
    </g>
</svg>