<?xml version="1.0" encoding="UTF-8"?>
<svg width="35px" height="28px" viewBox="0 0 35 28" version="1.1" xmlns="http://www.w3.org/2000/svg" xmlns:xlink="http://www.w3.org/1999/xlink">
    <!-- Generator: sketchtool 59.1 (101010) - https://sketch.com -->
    <title>0A360178-879E-41AF-B204-131EBCDF32EA</title>
    <desc>Created with sketchtool.</desc>
    <g id="Page-1" stroke="none" stroke-width="1" fill="none" fill-rule="evenodd">
        <g id="Maquette_test" transform="translate(-582.000000, -39.000000)">
            <g id="HEADER" transform="translate(-13.000000, 0.000000)">
                <g id="NAV" transform="translate(149.000000, 0.000000)">
                    <g id="Icon2" transform="translate(447.000000, 39.000000)">
                        <path d="M24.100245,-3.55271368e-15 C29.0982801,-3.55271368e-15 33.150195,4.05191491 33.150195,9.04995 C33.150195,12.7775429 30.55172,16.7024229 26.1508332,20.6810796 C23.3229344,23.2376639 20.2189372,25.4165056 17.5683249,27.0096157 C17.1556535,27.2574781 16.6447365,27.2574781 16.231899,27.0095159 C13.5814528,25.4165056 10.4774556,23.2376639 7.64955677,20.6810796 C3.24866996,16.7024229 0.650195,12.7775429 0.650195,9.04995 C0.650195,4.05191491 4.70210991,-3.55271368e-15 9.700145,-3.55271368e-15 C12.4572361,-3.55271368e-15 15.0065716,1.24627231 16.7139667,3.34543873 L16.9001803,3.58216931 L17.0893911,3.34108083 C18.7938184,1.24627231 21.3431539,-3.55271368e-15 24.100245,-3.55271368e-15 Z M17.4228987,25.5761044 C19.8884776,24.0550134 22.7078479,22.0412333 25.2790193,19.7167454 C29.4304401,15.9636204 31.850195,12.3086891 31.850195,9.04995 C31.850195,4.76988509 28.3803099,1.3 24.100245,1.3 C21.6521034,1.3 19.3969695,2.44674106 17.9380528,4.36454547 C17.4127228,5.05468484 16.3876672,5.05468484 15.8622197,4.36439095 C14.4034205,2.44674106 12.1482866,1.3 9.700145,1.3 C5.42008009,1.3 1.950195,4.76988509 1.950195,9.04995 C1.950195,12.3086891 4.36994988,15.9636204 8.52137073,19.7167454 C11.0925971,22.041283 13.9120332,24.0550996 16.3775146,25.576121 L16.900195,25.894445 L17.4228987,25.5761044 Z" id="Stroke-1" fill="#FFFFFF" fill-rule="nonzero"></path>
                        <path d="M15.6,19.805175 C15.14825,19.805175 14.72575,17.153825 14.13295,13.108225 C13.74425,10.458825 13.3042,7.455175 13,7.455175 C12.72245,7.455175 12.39355,9.289475 12.0757,11.062675 C11.61875,13.610675 11.10135,16.497975 10.4,16.497975 C9.7591,16.497975 9.35675,15.277275 8.96675,14.096875 C8.6255,13.060775 8.2719,11.988275 7.8,11.988275 C6.8107,11.988275 6.5351,13.812825 6.53185,13.831675 L6.52795,13.858975 L9.05941988e-14,13.858975 L9.05941988e-14,13.793975 L6.47205,13.793975 C6.5117,13.550225 6.812,11.923925 7.8,11.923925 C8.31935,11.923925 8.66385,12.969125 9.02915,14.076725 C9.4107,15.235025 9.8059,16.433625 10.4,16.433625 C11.04675,16.433625 11.5817,13.448825 12.01135,11.050975 C12.41825,8.781825 12.6841,7.390175 13,7.390175 C13.34255,7.390175 13.67795,9.559225 14.19665,13.099125 C14.63085,16.057925 15.17035,19.740175 15.6,19.740175 C16.01405,19.740175 16.484,17.838925 16.89935,16.161275 C17.3446,14.360125 17.7658,12.658425 18.2,12.658425 C18.616,12.658425 19.00665,13.344175 19.4207,14.070225 C19.8588,14.837875 20.31185,15.631525 20.8,15.631525 C21.73665,15.631525 22.0649,13.838825 22.06815,13.820625 L22.0727,13.793975 L27.3,13.793975 L27.3,13.858975 L22.1273,13.858975 C22.08115,14.096875 21.7373,15.696525 20.8,15.696525 C20.2735,15.696525 19.81135,14.885975 19.3648,14.102725 C18.95985,13.393575 18.5783,12.723425 18.2,12.723425 C17.8165,12.723425 17.3628,14.558375 16.9624,16.176225 C16.5009,18.043025 16.06475,19.805175 15.6,19.805175 Z" id="Stroke-3" stroke="#FFFFFF" stroke-width="1.3" fill="#D8D8D8" stroke-linecap="round" stroke-linejoin="round"></path>
                    </g>
                </g>
            </g>
        </g>
    </g>
</svg>