<?xml version="1.0" encoding="UTF-8"?>
<svg width="15px" height="14px" viewBox="0 0 15 14" version="1.1" xmlns="http://www.w3.org/2000/svg" xmlns:xlink="http://www.w3.org/1999/xlink">
    <!-- Generator: sketchtool 59.1 (101010) - https://sketch.com -->
    <title>AC35D252-47BE-42EA-A914-BB6630111CD8</title>
    <desc>Created with sketchtool.</desc>
    <defs>
        <polygon id="path-1" points="0 28.5 28.5 28.5 28.5 0 0 0"></polygon>
    </defs>
    <g id="Page-1" stroke="none" stroke-width="1" fill="none" fill-rule="evenodd">
        <g id="Maquette_test" transform="translate(-802.000000, -44.000000)">
            <g id="HEADER" transform="translate(-13.000000, 0.000000)">
                <g id="NAV" transform="translate(149.000000, 0.000000)">
                    <g id="Icon3" transform="translate(657.000000, 38.000000)">
                        <mask id="mask-2" fill="white">
                            <use xlink:href="#path-1"></use>
                        </mask>
                        <g id="Clip-6"></g>
                        <path d="M16.53,17.9215 C16.8448023,17.9215 17.1,18.1766977 17.1,18.4915 L17.1,18.5485 C17.1,18.8633023 16.8448023,19.1185 16.53,19.1185 L9.69,19.1185 C9.37519769,19.1185 9.12,18.8633023 9.12,18.5485 L9.12,18.4915 C9.12,18.1766977 9.37519769,17.9215 9.69,17.9215 L16.53,17.9215 Z M9.69,18.4915 L10.26,18.4915 L10.26,18.5485 L9.69,18.5485 L9.69,18.4915 Z" id="Stroke-5" fill="#FFFFFF" fill-rule="nonzero"></path>
                        <path d="M22.69,15.0715 C23.0048023,15.0715 23.26,15.3266977 23.26,15.6415 L23.26,15.6985 C23.26,16.0133023 23.0048023,16.2685 22.69,16.2685 L9.69,16.2685 C9.37519769,16.2685 9.12,16.0133023 9.12,15.6985 L9.12,15.6415 C9.12,15.3266977 9.37519769,15.0715 9.69,15.0715 L22.69,15.0715 Z" id="Stroke-7" fill="#FFFFFF" fill-rule="nonzero"></path>
                        <path d="M20.69,12.2215 C21.0048023,12.2215 21.26,12.4766977 21.26,12.7915 L21.26,12.8485 C21.26,13.1633023 21.0048023,13.4185 20.69,13.4185 L9.69,13.4185 C9.37519769,13.4185 9.12,13.1633023 9.12,12.8485 L9.12,12.7915 C9.12,12.4766977 9.37519769,12.2215 9.69,12.2215 L20.69,12.2215 Z M20.69,12.8485 L20.12,12.8485 L20.12,12.7915 L20.69,12.7915 L20.69,12.8485 Z M9.69,12.7915 L10.26,12.7915 L10.26,12.8485 L9.69,12.8485 L9.69,12.7915 Z" id="Stroke-8" fill="#FFFFFF" fill-rule="nonzero"></path>
                        <path d="M22.69,6.2215 C23.0048023,6.2215 23.26,6.47669769 23.26,6.7915 L23.26,6.8485 C23.26,7.16330231 23.0048023,7.4185 22.69,7.4185 L9.69,7.4185 C9.37519769,7.4185 9.12,7.16330231 9.12,6.8485 L9.12,6.7915 C9.12,6.47669769 9.37519769,6.2215 9.69,6.2215 L22.69,6.2215 Z M9.69,6.7915 L10.26,6.7915 L10.26,6.8485 L9.69,6.8485 L9.69,6.7915 Z" id="Stroke-8" fill="#FFFFFF" fill-rule="nonzero"></path>
                        <path d="M17.69,9.2215 C18.0048023,9.2215 18.26,9.47669769 18.26,9.7915 L18.26,9.8485 C18.26,10.1633023 18.0048023,10.4185 17.69,10.4185 L9.69,10.4185 C9.37519769,10.4185 9.12,10.1633023 9.12,9.8485 L9.12,9.7915 C9.12,9.47669769 9.37519769,9.2215 9.69,9.2215 L17.69,9.2215 Z M9.69,9.7915 L10.26,9.7915 L10.26,9.8485 L9.69,9.8485 L9.69,9.7915 Z" id="Stroke-8" fill="#FFFFFF" fill-rule="nonzero"></path>
                    </g>
                </g>
            </g>
        </g>
    </g>
</svg>