<?xml version="1.0" encoding="UTF-8"?>
<svg width="41px" height="42px" viewBox="0 0 41 42" version="1.1" xmlns="http://www.w3.org/2000/svg" xmlns:xlink="http://www.w3.org/1999/xlink">
    <!-- Generator: sketchtool 59.1 (101010) - https://sketch.com -->
    <title>E5000B62-7D43-4530-A49E-910C1CD47D97</title>
    <desc>Created with sketchtool.</desc>
    <g id="Page-1" stroke="none" stroke-width="1" fill="none" fill-rule="evenodd">
        <g id="Maquette_test" transform="translate(-890.000000, -1188.000000)" fill="#FFFFFF" fill-rule="nonzero">
            <g id="ARTICLES" transform="translate(313.000000, 927.000000)">
                <g id="3.article" transform="translate(556.000000, 240.000000)">
                    <g id="Icon9" transform="translate(21.629678, 21.629678)">
                        <path d="M32.2638359,-5.32907052e-14 C33.9585231,-5.32907052e-14 35.3304765,1.38813211 35.3304765,3.09843684 C35.3304765,3.17441845 35.3275709,3.25031554 35.3218308,3.32612788 C36.9186528,3.4349711 38.1791451,4.77845634 38.1791451,6.41767809 C38.1791451,6.88898305 38.0741426,7.34529644 37.876863,7.75907426 C38.9482935,8.25446535 39.6665011,9.34302956 39.6665011,10.5745411 C39.6665011,11.490405 39.2683609,12.336608 38.6048,12.9154883 C39.2683747,13.4945142 39.6665011,14.3407185 39.6665011,15.2565669 C39.6665011,16.2603339 39.1884884,17.1770378 38.4151445,17.7508283 C38.9882442,18.3235034 39.3240569,19.1090623 39.3240569,19.9515539 C39.3240569,20.9650096 38.8367579,21.8896201 38.050692,22.4619941 C38.5865511,23.0292319 38.8974315,23.7865121 38.8974315,24.5960846 C38.8974315,25.7949713 38.2170259,26.861346 37.1890667,27.3741547 C37.4152193,27.8109327 37.5365763,28.2980142 37.5365763,28.8027096 C37.5365763,29.9979094 36.8602676,31.0613625 35.8371721,31.5762279 C36.0737936,32.0205823 36.2011127,32.518937 36.2011127,33.0359516 C36.2011127,34.6432364 34.9894602,35.9659917 33.4369674,36.119512 C33.4818081,36.3303183 33.504794,36.5461104 33.504794,36.7646299 C33.504794,38.4582272 32.159514,39.8359155 30.4877246,39.8626704 C29.9120304,40.589531 29.0399194,41.0258775 28.0948014,41.0258775 C26.9228095,41.0258775 25.8740067,40.3553466 25.358413,39.3269697 C23.8305348,39.0772036 22.6674687,37.7802651 22.5802622,36.2083337 L22.5734358,35.9438371 L22.5397938,35.5198622 L22.5163108,35.1421165 L22.5150389,35.0258419 C21.3801451,34.9408245 20.5571858,34.5931915 19.9036068,33.8663042 C18.9880257,34.4553325 18.2976526,34.8388152 17.759761,34.9840184 C17.6088574,36.9127196 16.7441254,37.9400716 14.9467174,38.2545934 C14.9041018,39.7915105 13.6577807,41.0258775 12.1243684,41.0258775 C10.7249909,41.0258775 9.56456791,39.9978864 9.339964,38.6501364 C9.1370814,38.6941082 8.92976416,38.7166891 8.72005724,38.7166891 C7.06536148,38.7166891 5.72570275,37.3611509 5.72570275,35.6911594 C5.72570275,35.2737454 5.81056014,34.8688988 5.9706004,34.4957421 C4.37530726,34.3078662 3.13849947,32.9375381 3.13849947,31.2769227 C3.13849947,30.7554261 3.26187731,30.2519219 3.49241404,29.7996206 C2.58845356,29.3337146 1.99221515,28.3870559 1.99221515,27.3241995 C1.99221515,26.7500861 2.16621907,26.2045443 2.47732147,25.7492705 C1.22091956,25.4515599 0.286399514,24.3120133 0.286399514,22.9532442 C0.286399514,22.0936961 0.663771754,21.3007139 1.28838258,20.7645279 C0.487064288,20.1463043 -3.48165941e-13,19.2150221 -3.48165941e-13,18.2006258 C-3.48165941e-13,17.3263225 0.36153325,16.5094371 0.984312597,15.9006336 C0.359055941,15.2832692 -3.48165941e-13,14.4818254 -3.48165941e-13,13.6257619 C-3.48165941e-13,12.52617 0.590562632,11.5254435 1.54533832,10.8915892 C1.03479387,10.4232499 0.736586611,9.8085048 0.736586611,9.14579306 C0.736586611,8.2383745 1.29398246,7.42770061 2.16954176,6.95784168 C2.05298605,6.5403027 1.99221515,6.10020861 1.99221515,5.65064891 C1.99221515,3.53495328 3.30603839,1.78518289 4.98679839,1.78518289 C5.36612863,1.78518289 5.73426719,1.87641592 6.07703491,2.04911209 C6.58300873,0.816425101 7.57961995,-5.32907052e-14 8.72005724,-5.32907052e-14 C9.92783889,-5.32907052e-14 10.9717579,0.914733431 11.4449605,2.26376101 C11.667484,2.21290841 11.8945845,2.18675067 12.1243684,2.18675067 C13.8527226,2.18675067 15.2520862,3.6026974 15.2520862,5.34721642 C15.2520862,5.7765206 15.1669176,6.19337778 15.0056609,6.57796487 C16.3212281,6.80263056 17.3220776,7.95938489 17.3220776,9.35085879 C17.3220776,9.89285563 17.1687307,10.4089404 16.8937913,10.8488026 C18.0075108,10.9043733 18.9394765,11.6709068 19.2482798,12.7141269 C19.6431862,12.5003033 20.0874323,12.3847208 20.5491349,12.3847208 C20.9040246,12.3847208 21.2493634,12.453135 21.5708517,12.5829742 C21.8026215,11.8261577 22.4734909,11.4386898 23.736635,11.0742036 L24.0287377,10.9930122 C23.6249378,10.2239833 23.236105,9.24402211 23.236105,8.76042686 C23.236105,7.16774614 24.3007045,5.80820167 25.772384,5.40381044 C25.6090635,5.02159542 25.5227261,4.60731768 25.5227261,4.18070252 C25.5227261,2.47036322 26.8947133,1.08203423 28.5893667,1.08203423 C28.9136922,1.08203423 29.2310225,1.13344392 29.5326277,1.23227949 L29.7557468,1.31523627 L29.8737147,1.15690015 C30.4459234,0.437821727 31.3165356,-5.32907052e-14 32.2638359,-5.32907052e-14 Z M32.2638359,0.74064375 C31.4038108,0.74064375 30.6265812,1.21771528 30.2210868,1.97012776 C30.1228661,2.15238047 29.8943037,2.2187062 29.713781,2.11734107 C29.3711427,1.92494661 28.9876827,1.82267798 28.5893667,1.82267798 C27.3057354,1.82267798 26.2633698,2.87745926 26.2633698,4.18070252 C26.2633698,4.64477924 26.3968761,5.08848381 26.6439385,5.47066635 C26.7931239,5.70144234 26.6478366,6.00859817 26.3747999,6.03965952 C25.0159812,6.19424216 23.9767488,7.3621593 23.9767488,8.76042686 C23.9767488,9.15763459 24.4965373,10.3615738 24.9005492,11.0351255 C25.0121325,11.2211526 24.9394422,11.4562348 24.7569503,11.5527114 L24.6835143,11.5820265 L23.9583926,11.7810375 C22.707332,12.1398018 22.2579871,12.4635186 22.2203038,13.1655807 C22.2049896,13.4508928 21.8860231,13.6121172 21.6472089,13.4552564 C21.3208937,13.2409223 20.9434839,13.1253645 20.5491349,13.1253645 C20.0578189,13.1253645 19.5943369,13.30442 19.2274351,13.6255316 C18.9948519,13.8290879 18.6299719,13.6749704 18.6137348,13.3663177 C18.5612885,12.3693615 17.7493398,11.5862142 16.763949,11.5862142 C16.5284769,11.5862142 16.2983829,11.6319131 16.0801469,11.7198004 C15.9196942,11.7844175 15.7358824,11.7293505 15.6373868,11.5871568 L15.618629,11.560077 C15.503173,11.3933984 15.5432256,11.1648634 15.708483,11.0473822 C16.2517067,10.6612051 16.5814339,10.0347926 16.5814339,9.35085879 C16.5814339,8.2578008 15.7469859,7.36382817 14.6905412,7.28481631 L14.5381764,7.27913936 L14.423872,7.28534881 C14.1188904,7.3012549 13.9268281,6.96194164 14.0974399,6.70864655 C14.3658046,6.31022467 14.5114425,5.84029735 14.5114425,5.34721642 C14.5114425,4.00980323 13.4417105,2.92739442 12.1243684,2.92739442 C11.8519642,2.92739442 11.5836774,2.97611504 11.3235754,3.07013369 C11.1185574,3.14424124 10.894199,3.02609817 10.8393004,2.81512314 C10.514847,1.56825187 9.65851253,0.74064375 8.72005724,0.74064375 C7.81048105,0.74064375 6.97593963,1.51848589 6.62985044,2.71012008 C6.55758432,2.95894261 6.25869142,3.05853366 6.05162244,2.90278552 C5.72249372,2.65522944 5.36013366,2.52582664 4.98679839,2.52582664 C3.76870882,2.52582664 2.7328589,3.9053878 2.7328589,5.65064891 C2.7328589,6.13168352 2.81456801,6.59860406 2.96891616,7.02888595 C3.03570602,7.21507844 2.94437394,7.42088933 2.76149833,7.49628852 C1.97048212,7.82242267 1.47723036,8.45805396 1.47723036,9.14579306 C1.47723036,9.72103767 1.82177191,10.2619085 2.4129181,10.6191174 C2.666398,10.7722864 2.64644081,11.1462774 2.37809979,11.2716006 C1.37233314,11.7413234 0.74064375,12.6403229 0.74064375,13.6257619 C0.74064375,14.3877799 1.11843799,15.1013299 1.77565862,15.6104943 C1.96877769,15.7601083 1.96666316,16.0524343 1.77139995,16.1992389 C1.12274918,16.6869135 0.74064375,17.4153094 0.74064375,18.2006258 C0.74064375,19.1266092 1.27338495,19.968903 2.12601375,20.4276481 C2.38447901,20.5667117 2.38617237,20.9368374 2.12899036,21.0782602 C1.45562208,21.4485412 1.02704326,22.1621819 1.02704326,22.9532442 C1.02704326,24.0800023 1.88901896,25.0011323 2.97909002,25.0791006 L3.12909036,25.0844466 L3.23497352,25.0785754 C3.59142788,25.0624566 3.76224299,25.5102122 3.48562509,25.7356053 C3.01290859,26.1207831 2.7328589,26.6985468 2.7328589,27.3241995 C2.7328589,28.2222118 3.31080545,29.005716 4.14187206,29.2692832 C4.38005775,29.3448222 4.47660009,29.6297338 4.33339794,29.8345061 C4.03941924,30.2548818 3.87914322,30.7535191 3.87914322,31.2769227 C3.87914322,32.6586054 4.98462206,33.7770582 6.34605232,33.7770582 C6.41134892,33.7770582 6.48072517,33.7732704 6.56353309,33.7656536 C6.87950729,33.73659 7.08331008,34.0924055 6.89837632,34.3502502 C6.61893358,34.7398644 6.4663465,35.2035878 6.4663465,35.6911594 C6.4663465,36.9540456 7.47637408,37.9760454 8.72005724,37.9760454 C8.99952168,37.9760454 9.27390127,37.9222699 9.53585799,37.8190026 C9.75455754,37.732788 9.98956816,37.8692477 10.0343833,38.0878164 L10.0419941,38.1635208 L10.0470974,38.3319311 C10.1271563,39.424998 11.0275276,40.2852337 12.1243684,40.2852337 C13.2737203,40.2852337 14.2072002,39.3406242 14.2072002,38.1732418 C14.2072002,38.1102972 14.2037967,38.044141 14.1970459,37.9696673 C14.178957,37.7701142 14.3228703,37.592368 14.5218199,37.5685414 C16.269931,37.3591846 16.9616452,36.5495815 17.0369473,34.6601104 C17.0443446,34.474498 17.1881098,34.3230863 17.3730903,34.306089 C17.7564393,34.2708641 18.4460239,33.9116691 19.3461332,33.3429087 L19.7761682,33.0659402 C19.9392139,32.9591422 20.1571349,32.9970073 20.2745983,33.1525452 C20.8823591,33.9573062 21.6599948,34.2780483 22.9424759,34.3046149 C23.170671,34.3093419 23.3339201,34.5145867 23.3012688,34.7293939 L23.2701532,34.8504751 C23.2558271,34.9276044 23.2524996,35.0498503 23.2608166,35.2171459 L23.2692477,35.3510634 L23.3114416,35.8701825 L23.3208835,36.185908 C23.4007209,37.4599721 24.3850195,38.4959946 25.6450051,38.6177241 C25.7809638,38.6308593 25.898653,38.7177696 25.9512074,38.8438463 C26.3125652,39.7107339 27.1517581,40.2852337 28.0948014,40.2852337 C28.8630193,40.2852337 29.567621,39.9042008 30.0010962,39.2757654 C30.0592096,39.1915149 30.1488194,39.1360348 30.2477693,39.1202999 L30.3233869,39.1161225 L30.4088616,39.1213935 L30.5972988,39.1169886 C31.8068878,39.0341078 32.7641502,38.0135199 32.7641502,36.7646299 C32.7641502,36.4633701 32.7068085,36.1689924 32.5967548,35.8904073 C32.4965302,35.6367034 32.6956961,35.3653868 32.9677746,35.3849802 L33.1344721,35.3937447 C34.4181568,35.3937447 35.460469,34.3391411 35.460469,33.0359516 C35.460469,32.5200718 35.2945598,32.0296378 34.9923768,31.6223205 C34.841386,31.4187978 34.9348312,31.1271512 35.1759841,31.0492733 C36.132612,30.7403403 36.7959325,29.837034 36.7959325,28.8027096 C36.7959325,28.2974621 36.6367381,27.8163603 36.345769,27.4131373 C36.1984809,27.2090265 36.2933502,26.9206071 36.5330448,26.8437859 C37.4914561,26.5366184 38.1567877,25.632074 38.1567877,24.5960846 C38.1567877,23.8392352 37.801273,23.1439055 37.2098196,22.7008624 C36.9884736,22.5350576 37.0203758,22.1939432 37.2686276,22.0720567 C38.0660921,21.6805183 38.5834132,20.8639985 38.5834132,19.9515539 C38.5834132,19.1651569 38.2009017,18.4456341 37.5731091,18.0082423 C37.3422128,17.8473736 37.3680331,17.4979192 37.6200653,17.3727329 C38.4127488,16.979001 38.9258573,16.1653074 38.9258573,15.2565669 C38.9258573,14.4171513 38.487956,13.6558935 37.7874143,13.2323407 C37.5490907,13.0882484 37.5491279,12.7425357 37.7874825,12.5984947 C38.4879441,12.175196 38.9258573,11.4139726 38.9258573,10.5745411 C38.9258573,9.51451764 38.2287603,8.59508276 37.2378179,8.30890797 C36.996385,8.23918443 36.8930291,7.95435676 37.0335647,7.74602773 C37.2959512,7.35706767 37.4385014,6.89834667 37.4385014,6.41767809 C37.4385014,5.16878813 36.4810289,4.14798764 35.2714224,4.06508915 L35.0863669,4.05990597 L34.9227454,4.06973399 C34.6739202,4.09031809 34.4764425,3.86379657 34.530764,3.62010238 C34.5697996,3.44498279 34.5898327,3.27126659 34.5898327,3.09843684 C34.5898327,1.79524731 33.5475206,0.74064375 32.2638359,0.74064375 Z M26.8423983,32.6876407 C28.1191949,32.6876407 29.152322,33.7330361 29.152322,35.0206685 C29.152322,36.308112 28.1191527,37.3534649 26.8423983,37.3534649 C26.6378751,37.3534649 26.4720764,37.1876661 26.4720764,36.983143 C26.4720764,36.7786199 26.6378751,36.6128211 26.8423983,36.6128211 C27.7081502,36.6128211 28.4116782,35.9009967 28.4116782,35.0206685 C28.4116782,34.1401379 27.7081787,33.4282844 26.8423983,33.4282844 C26.6378751,33.4282844 26.4720764,33.2624857 26.4720764,33.0579626 C26.4720764,32.8534394 26.6378751,32.6876407 26.8423983,32.6876407 Z M12.6835795,31.1714504 C12.8881026,31.1714504 13.0539013,31.3372491 13.0539013,31.5417722 C13.0539013,31.7462954 12.8881026,31.9120941 12.6835795,31.9120941 C11.8177703,31.9120941 11.1140708,32.623976 11.1140708,33.5042467 C11.1140708,34.3847198 11.8177417,35.0966308 12.6835795,35.0966308 C12.8881026,35.0966308 13.0539013,35.2624295 13.0539013,35.4669527 C13.0539013,35.6714758 12.8881026,35.8372745 12.6835795,35.8372745 C11.4067529,35.8372745 10.373427,34.7918483 10.373427,33.5042467 C10.373427,32.2168341 11.4067951,31.1714504 12.6835795,31.1714504 Z M31.2540717,27.8200374 C32.5310548,27.8200374 33.5642241,28.8653903 33.5642241,30.1530652 C33.5642241,31.4405511 32.5310126,32.4858616 31.2540717,32.4858616 C31.0495486,32.4858616 30.8837498,32.3200628 30.8837498,32.1155397 C30.8837498,31.9110166 31.0495486,31.7452178 31.2540717,31.7452178 C32.1200238,31.7452178 32.8235804,31.0334226 32.8235804,30.1530652 C32.8235804,29.2725055 32.1200523,28.5606811 31.2540717,28.5606811 C31.0495486,28.5606811 30.8837498,28.3948824 30.8837498,28.1903593 C30.8837498,27.9858361 31.0495486,27.8200374 31.2540717,27.8200374 Z M8.79476817,27.4682316 C8.99929129,27.4682316 9.16509004,27.6340304 9.16509004,27.8385535 C9.16509004,28.0430766 8.99929129,28.2088754 8.79476817,28.2088754 C7.92895896,28.2088754 7.22525946,28.9207572 7.22525946,29.801028 C7.22525946,30.6815011 7.92893043,31.393412 8.79476817,31.393412 C8.99929129,31.393412 9.16509004,31.5592108 9.16509004,31.7637339 C9.16509004,31.968257 8.99929129,32.1340558 8.79476817,32.1340558 C7.51794162,32.1340558 6.48461571,31.0886296 6.48461571,29.801028 C6.48461571,28.5136153 7.51798383,27.4682316 8.79476817,27.4682316 Z M24.5194512,25.8574472 C25.7962355,25.8574472 26.8296036,26.9028309 26.8296036,28.1902435 C26.8296036,29.4778452 25.7962777,30.5232714 24.5194512,30.5232714 C24.314928,30.5232714 24.1491293,30.3574726 24.1491293,30.1529495 C24.1491293,29.9484264 24.314928,29.7826276 24.5194512,29.7826276 C25.3852889,29.7826276 26.0889599,29.0707166 26.0889599,28.1902435 C26.0889599,27.3099728 25.3852604,26.5980909 24.5194512,26.5980909 C24.314928,26.5980909 24.1491293,26.4322922 24.1491293,26.2277691 C24.1491293,26.0232459 24.314928,25.8574472 24.5194512,25.8574472 Z M17.2385441,25.5055257 C17.4430673,25.5055257 17.608866,25.6713244 17.608866,25.8758475 C17.608866,26.0803707 17.4430673,26.2461694 17.2385441,26.2461694 C16.3727064,26.2461694 15.6690354,26.9580804 15.6690354,27.8385535 C15.6690354,28.7188242 16.3727349,29.4307061 17.2385441,29.4307061 C17.4430673,29.4307061 17.608866,29.5965048 17.608866,29.801028 C17.608866,30.0055511 17.4430673,30.1713498 17.2385441,30.1713498 C15.9617598,30.1713498 14.9283917,29.1259661 14.9283917,27.8385535 C14.9283917,26.5509519 15.9617176,25.5055257 17.2385441,25.5055257 Z M20.7725128,23.1815245 C22.0492672,23.1815245 23.0826653,24.2271088 23.0826653,25.5145523 C23.0826653,26.8019957 22.0492672,27.8475801 20.7725128,27.8475801 C20.5679897,27.8475801 20.402191,27.6817813 20.402191,27.4772582 C20.402191,27.2727351 20.5679897,27.1069363 20.7725128,27.1069363 C21.6382647,27.1069363 22.3420215,26.3948805 22.3420215,25.5145523 C22.3420215,24.634224 21.6382647,23.9221682 20.7725128,23.9221682 C20.5679897,23.9221682 20.402191,23.7563695 20.402191,23.5518463 C20.402191,23.3473232 20.5679897,23.1815245 20.7725128,23.1815245 Z M11.3110578,21.21905 C11.515581,21.21905 11.6813797,21.3848487 11.6813797,21.5893718 C11.6813797,21.793895 11.515581,21.9596937 11.3110578,21.9596937 C10.4452486,21.9596937 9.74154913,22.6715756 9.74154913,23.5518463 C9.74154913,24.4323194 10.4452201,25.1442304 11.3110578,25.1442304 C11.515581,25.1442304 11.6813797,25.3100291 11.6813797,25.5145523 C11.6813797,25.7190754 11.515581,25.8848741 11.3110578,25.8848741 C10.0342313,25.8848741 9.00090538,24.839448 9.00090538,23.5518463 C9.00090538,22.2644337 10.0342735,21.21905 11.3110578,21.21905 Z M29.1582083,21.21905 C30.4349926,21.21905 31.4683607,22.2644337 31.4683607,23.5518463 C31.4683607,24.839448 30.4350348,25.8848741 29.1582083,25.8848741 C28.9536852,25.8848741 28.7878864,25.7190754 28.7878864,25.5145523 C28.7878864,25.3100291 28.9536852,25.1442304 29.1582083,25.1442304 C30.024046,25.1442304 30.727717,24.4323194 30.727717,23.5518463 C30.727717,22.6715756 30.0240175,21.9596937 29.1582083,21.9596937 C28.9536852,21.9596937 28.7878864,21.793895 28.7878864,21.5893718 C28.7878864,21.3848487 28.9536852,21.21905 29.1582083,21.21905 Z M6.73598571,17.9787336 C6.94050884,17.9787336 7.10630759,18.1445323 7.10630759,18.3490554 C7.10630759,18.5535786 6.94050884,18.7193773 6.73598571,18.7193773 C5.87017651,18.7193773 5.16647701,19.4312592 5.16647701,20.3115299 C5.16647701,21.192003 5.87014797,21.903914 6.73598571,21.903914 C6.94050884,21.903914 7.10630759,22.0697127 7.10630759,22.2742359 C7.10630759,22.478759 6.94050884,22.6445577 6.73598571,22.6445577 C5.45915917,22.6445577 4.42583326,21.5991315 4.42583326,20.3115299 C4.42583326,19.0241173 5.45920138,17.9787336 6.73598571,17.9787336 Z M33.7200813,17.2937538 C34.9970222,17.2937538 36.0302338,18.3390643 36.0302338,19.6265502 C36.0302338,20.9142251 34.9970644,21.959578 33.7200813,21.959578 C33.5155582,21.959578 33.3497594,21.7937792 33.3497594,21.5892561 C33.3497594,21.384733 33.5155582,21.2189342 33.7200813,21.2189342 C34.586062,21.2189342 35.28959,20.5071099 35.28959,19.6265502 C35.28959,18.7461928 34.5860334,18.0343976 33.7200813,18.0343976 C33.5155582,18.0343976 33.3497594,17.8685988 33.3497594,17.6640757 C33.3497594,17.4595526 33.5155582,17.2937538 33.7200813,17.2937538 Z M19.1533491,16.9762028 C19.3578722,16.9762028 19.5236709,17.1420016 19.5236709,17.3465247 C19.5236709,17.5510478 19.3578722,17.7168466 19.1533491,17.7168466 C18.2875972,17.7168466 17.5840691,18.4286709 17.5840691,19.3089992 C17.5840691,20.1895297 18.2875687,20.9013832 19.1533491,20.9013832 C19.3578722,20.9013832 19.5236709,21.067182 19.5236709,21.2717051 C19.5236709,21.4762282 19.3578722,21.642027 19.1533491,21.642027 C17.8765525,21.642027 16.8434254,20.5966316 16.8434254,19.3089992 C16.8434254,18.0215557 17.8765947,16.9762028 19.1533491,16.9762028 Z M15.2964947,14.6178311 C15.5010178,14.6178311 15.6668165,14.7836298 15.6668165,14.988153 C15.6668165,15.1926761 15.5010178,15.3584748 15.2964947,15.3584748 C14.4307428,15.3584748 13.7269859,16.0705307 13.7269859,16.9508589 C13.7269859,17.8311871 14.4307428,18.543243 15.2964947,18.543243 C15.5010178,18.543243 15.6668165,18.7090417 15.6668165,18.9135648 C15.6668165,19.118088 15.5010178,19.2838867 15.2964947,19.2838867 C14.0197403,19.2838867 12.9863422,18.2383024 12.9863422,16.9508589 C12.9863422,15.6634155 14.0197403,14.6178311 15.2964947,14.6178311 Z M23.9386457,14.6178311 C25.2153702,14.6178311 26.2485694,15.6633846 26.2485694,16.9508589 C26.2485694,18.2383332 25.2153702,19.2838867 23.9386457,19.2838867 C23.7341226,19.2838867 23.5683239,19.118088 23.5683239,18.9135648 C23.5683239,18.7090417 23.7341226,18.543243 23.9386457,18.543243 C24.8043403,18.543243 25.5079257,17.8312446 25.5079257,16.9508589 C25.5079257,16.0704732 24.8043403,15.3584748 23.9386457,15.3584748 C23.7341226,15.3584748 23.5683239,15.1926761 23.5683239,14.988153 C23.5683239,14.7836298 23.7341226,14.6178311 23.9386457,14.6178311 Z M29.3143555,13.0071624 C30.5911521,13.0071624 31.6242792,14.0525578 31.6242792,15.3401902 C31.6242792,16.6276336 30.5911099,17.6729866 29.3143555,17.6729866 C29.1098324,17.6729866 28.9440336,17.5071878 28.9440336,17.3026647 C28.9440336,17.0981416 29.1098324,16.9323428 29.3143555,16.9323428 C30.1801074,16.9323428 30.8836354,16.2205184 30.8836354,15.3401902 C30.8836354,14.4596596 30.1801359,13.7478061 29.3143555,13.7478061 C29.1098324,13.7478061 28.9440336,13.5820074 28.9440336,13.3774843 C28.9440336,13.1729611 29.1098324,13.0071624 29.3143555,13.0071624 Z M8.79476817,12.6553566 C8.99929129,12.6553566 9.16509004,12.8211554 9.16509004,13.0256785 C9.16509004,13.2302016 8.99929129,13.3960004 8.79476817,13.3960004 C7.92895896,13.3960004 7.22525946,14.1078822 7.22525946,14.988153 C7.22525946,15.8686261 7.92893043,16.580537 8.79476817,16.580537 C8.99929129,16.580537 9.16509004,16.7463358 9.16509004,16.9508589 C9.16509004,17.155382 8.99929129,17.3211808 8.79476817,17.3211808 C7.51794162,17.3211808 6.48461571,16.2757546 6.48461571,14.988153 C6.48461571,13.7007403 7.51798383,12.6553566 8.79476817,12.6553566 Z M31.2540717,6.7113202 C32.5310126,6.7113202 33.5642241,7.75663067 33.5642241,9.04411656 C33.5642241,10.3317914 32.5310548,11.3771444 31.2540717,11.3771444 C31.0495486,11.3771444 30.8837498,11.2113456 30.8837498,11.0068225 C30.8837498,10.8022994 31.0495486,10.6365006 31.2540717,10.6365006 C32.1200523,10.6365006 32.8235804,9.92467624 32.8235804,9.04411656 C32.8235804,8.1637592 32.1200238,7.45196395 31.2540717,7.45196395 C31.0495486,7.45196395 30.8837498,7.28616519 30.8837498,7.08164207 C30.8837498,6.87711895 31.0495486,6.7113202 31.2540717,6.7113202 Z M16.2274726,11.1383394 L15.9230508,11.3492082 L15.9411641,11.3746877 L16.2462304,11.1654192 L16.2274726,11.1383394 Z M9.7646377,6.2749653 C9.96916083,6.2749653 10.1349596,6.44076405 10.1349596,6.64528718 C10.1349596,6.8498103 9.96916083,7.01560905 9.7646377,7.01560905 C8.89894312,7.01560905 8.19535776,7.7276074 8.19535776,8.60799311 C8.19535776,9.48837883 8.89894312,10.2003772 9.7646377,10.2003772 C9.96916083,10.2003772 10.1349596,10.3661759 10.1349596,10.5706991 C10.1349596,10.7752222 9.96916083,10.9410209 9.7646377,10.9410209 C8.48791327,10.9410209 7.45471401,9.89546738 7.45471401,8.60799311 C7.45471401,7.32051885 8.48791327,6.2749653 9.7646377,6.2749653 Z" id="Combined-Shape"></path>
                    </g>
                </g>
            </g>
        </g>
    </g>
</svg>