<?xml version="1.0" encoding="UTF-8"?>
<svg width="31px" height="44px" viewBox="0 0 31 44" version="1.1" xmlns="http://www.w3.org/2000/svg" xmlns:xlink="http://www.w3.org/1999/xlink">
    <!-- Generator: sketchtool 59.1 (101010) - https://sketch.com -->
    <title>D1AE7E21-E24D-45ED-BC9F-1D0195437A49</title>
    <desc>Created with sketchtool.</desc>
    <g id="Page-1" stroke="none" stroke-width="1" fill="none" fill-rule="evenodd">
        <g id="Maquette_test" transform="translate(-345.000000, -1325.000000)" fill="#FFFFFF">
            <g id="ARTICLES" transform="translate(313.000000, 927.000000)">
                <g id="1.article" transform="translate(5.000000, 380.000000)">
                    <g id="Icon7" transform="translate(27.000099, 17.986025)">
                        <path d="M10.5174833,3.19744231e-14 C12.3311852,3.19744231e-14 13.8059981,1.46282258 13.8059981,3.26177892 L13.8059981,3.26177892 L13.8059981,10.8844251 C14.3993022,10.3097448 15.208263,9.95192503 16.1007037,9.95192503 C17.3827176,9.95192503 18.4828644,10.6902364 19.0254843,11.7538386 C19.6237575,10.9346973 20.5887462,10.3955033 21.683924,10.3955033 C22.9848203,10.3955033 24.1018619,11.154515 24.6355375,12.2447318 C25.2348045,11.4443195 26.1878675,10.9169542 27.2681382,10.9169542 C29.0818401,10.9169542 30.556653,12.3807625 30.556653,14.1787331 L30.556653,14.1787331 L30.556653,19.5568733 C30.556653,20.5357027 30.1104327,21.4051161 29.4197352,22.0034539 L29.4197352,22.0034539 L29.4197352,27.3283647 C29.4197352,29.5689278 28.7677964,31.7454185 27.5344791,33.6212618 L27.5344791,33.6212618 L26.6966979,34.8977815 C25.5687244,36.6139365 24.9734326,38.6041244 24.9734326,40.6524703 L24.9734326,40.6524703 L24.9734326,43.696403 L23.9796234,43.696403 L23.9796234,40.6524703 C23.9796234,38.4128929 24.6315623,36.2364021 25.8638857,34.3595732 L25.8638857,34.3595732 L26.7026607,33.0830535 C27.8296404,31.3668984 28.425926,29.3776963 28.425926,27.3283647 L28.425926,27.3283647 L28.425926,22.5988345 C28.0641794,22.7348652 27.6775876,22.8186522 27.2681382,22.8186522 C26.3319699,22.8186522 25.4912073,22.4243604 24.8919403,21.8003936 C24.5669647,23.2612447 23.2541426,24.3603331 21.683924,24.3603331 C20.7040281,24.3603331 19.8334512,23.9246407 19.2312028,23.2474445 C18.8177781,24.5811365 17.578498,25.5599659 16.1007037,25.5599659 C14.2870018,25.5599659 12.8121889,24.0961576 12.8121889,22.298187 L12.8121889,22.298187 L12.8121889,18.3848409 C11.837262,19.7461333 10.2382229,20.6392043 8.42949006,20.6392043 L8.42949006,20.6392043 L7.56487601,20.6392043 L7.56487601,25.3874633 L8.31222057,25.3874633 C13.8397876,25.3874633 18.3377683,29.8478893 18.3377683,35.3315025 L18.3377683,35.3315025 L17.343959,35.3315025 C17.343959,30.3920119 13.2921987,26.3731928 8.31222057,26.3731928 L8.31222057,26.3731928 L7.56487601,26.3731928 L7.56487601,28.526026 L6.57106676,28.526026 L6.57106676,19.6534748 L8.42949006,19.6534748 C10.8464342,19.6534748 12.8121889,17.7037018 12.8121889,15.3064077 C12.8121889,15.1930488 12.7197646,15.1013759 12.6054765,15.1013759 L12.6054765,15.1013759 L2.4716036,15.1013759 C1.65668002,15.1013759 0.99380925,15.7588575 0.99380925,16.5671557 L0.99380925,16.5671557 L0.99380925,28.6029129 C0.99380925,33.1293828 4.6848168,36.8081253 7.84513022,38.5834241 C9.33783171,39.4212942 10.2660496,40.9639608 10.2660496,42.6101291 L10.2660496,42.6101291 L10.2660496,43.696403 L9.2722403,43.696403 L9.2722403,42.6101291 C9.2722403,41.3188235 8.53781527,40.1044047 7.35518226,39.4410088 C4.04182222,37.5799515 0.196774232,33.7365921 0.0168947573,28.9479182 L0.0168947573,28.9479182 L2.68229883e-13,28.9479182 L2.68229883e-13,16.5671557 C2.68229883e-13,15.2157206 1.10909112,14.1156464 2.4716036,14.1156464 L2.4716036,14.1156464 L7.22797468,14.1156464 L7.22797468,12.4083629 L8.22178393,12.4083629 L8.22178393,14.1156464 L12.6054765,14.1156464 C12.6299905,14.1156464 12.6534002,14.1188227 12.6762946,14.1235323 L12.8121889,14.1570471 L12.8121889,3.26177892 C12.8121889,2.00595953 11.7826025,0.9857295 10.5174833,0.9857295 C9.25236412,0.9857295 8.22178393,2.00595953 8.22178393,3.26177892 L8.22178393,3.26177892 L7.22797468,3.26177892 C7.22797468,1.46282258 8.70378141,3.19744231e-14 10.5174833,3.19744231e-14 Z M16.1007037,10.9376545 C14.8355845,10.9376545 13.8059981,11.9588703 13.8059981,13.2137039 L13.8059981,13.2137039 L13.8059981,22.298187 C13.8059981,23.5530207 14.8355845,24.5742364 16.1007037,24.5742364 C17.3668166,24.5742364 18.3954092,23.5530207 18.3954092,22.298187 L18.3954092,22.298187 L18.3954092,13.2137039 C18.3954092,11.9588703 17.3668166,10.9376545 16.1007037,10.9376545 Z M21.683924,11.3812328 C20.4188049,11.3812328 19.3892185,12.4024486 19.3892185,13.6572822 L19.3892185,13.6572822 L19.3892185,21.0975685 C19.3892185,22.3524021 20.4188049,23.3746036 21.683924,23.3746036 C22.950037,23.3746036 23.9796234,22.3524021 23.9796234,21.0975685 L23.9796234,21.0975685 L23.9796234,13.6572822 C23.9796234,12.4024486 22.950037,11.3812328 21.683924,11.3812328 Z M27.2681382,11.9026837 C26.0020252,11.9026837 24.9734326,12.9238995 24.9734326,14.1787331 L24.9734326,14.1787331 L24.9734326,19.5568733 C24.9734326,20.8117069 26.0020252,21.8329227 27.2681382,21.8329227 C28.5332574,21.8329227 29.5628438,20.8117069 29.5628438,19.5568733 L29.5628438,19.5568733 L29.5628438,14.1787331 C29.5628438,12.9238995 28.5332574,11.9026837 27.2681382,11.9026837 Z M7.24983848,4.75870773 C7.37704606,4.34272989 8.07370635,4.34371561 8.20091393,4.75870773 C8.20290155,4.76560784 8.41458292,5.44674693 8.87769803,6.24518782 C9.0247818,6.4985203 9.19969223,6.72129517 9.36764599,6.93914139 C9.79001492,7.48326407 10.2253034,8.04611562 10.2253034,8.90172882 C10.2253034,10.2689356 9.10428654,11.3808385 7.7248793,11.3808385 C6.34646587,11.3808385 5.22544904,10.2689356 5.22544904,8.90172882 C5.22544904,8.04611562 5.6617313,7.48326407 6.08310642,6.93914139 C6.25106018,6.72129517 6.42597061,6.4985203 6.57404819,6.24518782 C7.03616949,5.44674693 7.24785086,4.76560784 7.24983848,4.75870773 Z M7.7248793,6.19491562 C7.64040551,6.36643255 7.54400602,6.54780678 7.434687,6.73706684 C7.26474562,7.0298285 7.06498996,7.28907536 6.87119715,7.53945065 C6.50646916,8.00964363 6.21925829,8.38126365 6.21925829,8.90172882 C6.21925829,9.72579868 6.89405477,10.395109 7.7248793,10.395109 C8.55570383,10.395109 9.23149412,9.72579868 9.23149412,8.90172882 C9.23149412,8.38126365 8.94428325,8.00964363 8.57955526,7.53945065 C8.38576245,7.28907536 8.18600679,7.0298285 8.01606541,6.73706684 C7.90674639,6.54780678 7.8103469,6.36643255 7.7248793,6.19491562 Z" id="Combined-Shape"></path>
                    </g>
                </g>
            </g>
        </g>
    </g>
</svg>