<?xml version="1.0" encoding="UTF-8"?>
<svg width="106px" height="58px" viewBox="0 0 106 58" version="1.1" xmlns="http://www.w3.org/2000/svg" xmlns:xlink="http://www.w3.org/1999/xlink">
    <!-- Generator: sketchtool 59.1 (101010) - https://sketch.com -->
    <title>5C02CED5-D330-4C6B-B0EF-934339A389D2</title>
    <desc>Created with sketchtool.</desc>
    <g id="Page-1" stroke="none" stroke-width="1" fill="none" fill-rule="evenodd">
        <g id="Maquette_test" transform="translate(-136.000000, -37.000000)" fill="#FFFFFF">
            <g id="HEADER" transform="translate(-13.000000, 0.000000)">
                <g id="NAV" transform="translate(149.000000, 0.000000)">
                    <path d="M82.1638069,91.0394294 C82.8010322,91.0394294 83.2649694,91.291299 83.6182107,91.692743 L83.6182107,91.692743 L83.36929,91.8703985 C83.0968972,91.5494725 82.6561424,91.3374321 82.1638069,91.3374321 C81.2536091,91.3374321 80.5517629,92.0191133 80.5517629,93.0168493 C80.5517629,94.0025506 81.2536091,94.7019973 82.1638069,94.7019973 C82.6793248,94.7019973 83.0850162,94.4498412 83.2997429,94.2378008 L83.2997429,94.2378008 L83.2997429,93.3263136 L81.8331683,93.3263136 L81.8331683,93.0283109 L83.6300917,93.0283109 L83.6300917,94.3638788 C83.2820664,94.7418265 82.7720542,95 82.1638069,95 C81.073656,95 80.2043172,94.1973985 80.2043172,93.0168493 C80.2043172,91.8360136 81.073656,91.0394294 82.1638069,91.0394294 Z M28.3337389,91.1022965 L28.3337389,93.4525063 C28.3337389,94.2261672 28.7458055,94.6963811 29.5047382,94.6963811 C30.2642506,94.6963811 30.6757376,94.2261672 30.6757376,93.4525063 L30.6757376,93.4525063 L30.6757376,91.1022965 L31.011882,91.1022965 L31.011882,93.4582372 C31.011882,94.4038227 30.5018699,94.9943838 29.5047382,94.9943838 C28.513692,94.9943838 27.9975945,94.3980918 27.9975945,93.4582372 L27.9975945,93.4582372 L27.9975945,91.1022965 L28.3337389,91.1022965 Z M54.8315337,91.0392861 C55.4055871,91.0392861 55.8402565,91.2398649 56.1419171,91.5779833 L56.1419171,91.5779833 L55.9216846,91.8186778 C55.6432064,91.4862902 55.2488163,91.3372889 54.8141469,91.3372889 C54.2983392,91.3372889 53.9103243,91.6295607 53.9103243,92.0421799 C53.9103243,92.4952013 54.3913585,92.6270102 54.9187574,92.7702807 C55.5391755,92.9422054 56.2285612,93.1370533 56.2285612,93.9167315 C56.2285612,94.4038513 55.8985022,94.9944124 54.8547161,94.9944124 C54.2169111,94.9944124 53.735877,94.7419698 53.4403018,94.3866589 L53.4403018,94.3866589 L53.6550285,94.1402335 C53.9039492,94.4267746 54.3096406,94.6964097 54.8605117,94.6964097 C55.6545078,94.6964097 55.8808256,94.2605808 55.8808256,93.933924 C55.8808256,93.3952268 55.3592224,93.2459389 54.8202323,93.1026683 C54.2114053,92.9364745 53.5620092,92.7642634 53.5620092,92.0596589 C53.5620092,91.4347128 54.130267,91.0392861 54.8315337,91.0392861 Z M22.6603758,91.1021819 C23.4025014,91.1021819 23.8258694,91.6182424 23.8258694,92.2199786 C23.8258694,92.8217148 23.3967058,93.3377753 22.6603758,93.3377753 L22.6603758,93.3377753 L21.5415367,93.3377753 L21.5415367,94.9254993 L21.2108982,94.9254993 L21.2108982,91.1021819 Z M37.0391529,91.1021819 C37.6824636,91.1021819 38.1058316,91.4746853 38.1058316,92.0767081 C38.1058316,92.5580971 37.7754828,92.8850404 37.4271678,92.9535237 C37.8392344,93.0168493 38.1811743,93.4466609 38.1811743,93.893665 C38.1811743,94.5300727 37.7636019,94.9254993 37.067841,94.9254993 L37.067841,94.9254993 L35.4508709,94.9254993 L35.4508709,91.1021819 Z M42.8170684,91.1022679 L42.8170684,94.6275826 L44.6893344,94.6275826 L44.6893344,94.9255853 L42.4864299,94.9255853 L42.4864299,91.1022679 L42.8170684,91.1022679 Z M49.2156049,91.1021533 L49.2156049,94.9254707 L48.8849664,94.9254707 L48.8849664,91.1021533 L49.2156049,91.1021533 Z M60.8297977,91.1022392 L60.8297977,92.8103105 L63.2816229,92.8103105 L63.2816229,91.1022392 L63.6177672,91.1022392 L63.6177672,94.9255566 L63.2816229,94.9255566 L63.2816229,93.1083132 L60.8297977,93.1083132 L60.8297977,94.9255566 L60.4991591,94.9255566 L60.4991591,91.1022392 L60.8297977,91.1022392 Z M68.381628,91.1021533 L68.381628,94.9254707 L68.0509895,94.9254707 L68.0509895,91.1021533 L68.381628,91.1021533 Z M73.1568482,91.1023538 L75.5796955,94.3580334 L75.5796955,91.1023538 L75.910334,91.1023538 L75.910334,94.9253847 L75.5854911,94.9253847 L73.1510526,91.6238586 L73.1510526,94.9253847 L72.8207038,94.9253847 L72.8207038,91.1023538 L73.1568482,91.1023538 Z M37.0214763,93.1142733 L35.7815094,93.1142733 L35.7815094,94.6274966 L37.0214763,94.6274966 C37.532068,94.6274966 37.833149,94.3349382 37.833149,93.8707417 C37.833149,93.4810458 37.5607562,93.1142733 37.0214763,93.1142733 L37.0214763,93.1142733 Z M22.6253125,91.4001846 L21.5415367,91.4001846 L21.5415367,93.0397726 L22.6253125,93.0397726 C23.1359041,93.0397726 23.4775543,92.7013676 23.4775543,92.2199786 C23.4775543,91.7385896 23.1359041,91.4001846 22.6253125,91.4001846 L22.6253125,91.4001846 Z M36.9988735,91.4001846 L35.7815094,91.4001846 L35.7815094,92.8162706 L36.9988735,92.8162706 C37.4970046,92.8162706 37.7578063,92.5068062 37.7578063,92.111093 C37.7578063,91.7211106 37.4970046,91.4001846 36.9988735,91.4001846 L36.9988735,91.4001846 Z M23.7754767,37.0307944 C24.333882,36.9242011 24.9934204,37.1081605 25.3652076,37.370059 C27.3568628,37.9119081 29.4803678,39.229997 29.8295522,41.0048324 C30.3378256,43.5908655 27.4655302,47.1004204 27.2047285,47.4121771 C18.6214566,59.2726848 10.2253823,72.8601755 7.19631614,79.6907414 C12.9516289,76.4740314 17.9051214,74.5530601 23.0339307,73.530395 C25.5254557,68.5256688 30.0184885,62.9945667 30.2230729,62.7444163 L30.2230729,62.7444163 L30.2642216,62.6988563 C30.5586377,62.4077306 30.9388285,62.3939766 31.1364582,62.4123152 C31.5366439,62.3799361 31.944074,62.6343846 32.1121462,62.7530126 L32.1121462,62.7530126 L32.1428628,62.7762224 C33.6531941,64.0029047 34.2901297,64.7060764 34.4043028,64.8367392 C34.816949,65.2530833 34.9261959,65.6734391 34.9505374,65.7969383 C35.024721,66.1396414 34.8430292,66.5571317 34.410678,67.0385207 C30.7351135,71.4002488 28.5890057,75.0459107 28.567562,75.0820149 C26.3997208,78.7975929 25.7369948,80.7231488 25.5367571,81.6028299 C28.7906923,79.0294046 32.7835655,74.6384493 34.7514588,72.3971251 C36.0467736,69.9371701 37.706921,68.237122 37.8999142,68.0434202 C40.8127788,64.7350171 44.4248816,63.0513018 45.0276232,62.7848186 C45.4199847,62.4945525 45.9424574,62.6071632 46.3113468,62.8673424 L46.3113468,62.8673424 L50.4604112,67.6603148 C50.5968974,67.9666272 50.5844369,68.2626241 50.5232934,68.4437181 L50.5232934,68.4437181 L50.4917074,68.5187918 C50.3230557,68.8517526 50.0303783,69.0795527 49.9738712,69.1216742 L49.9738712,69.1216742 L49.9414159,69.1437379 C47.7115619,70.5767298 46.8978607,71.3117076 46.8897469,71.3188711 C45.8694329,72.1770616 45.4704064,72.5080165 45.3802849,72.5822307 L45.3802849,72.5822307 L45.0209582,72.9223549 C44.5103666,73.2590407 43.9841268,73.1209279 43.7102851,72.8510062 C43.3825443,72.5266417 43.4051471,72.068176 43.5239568,71.7741849 C43.9200855,70.8753055 44.3214303,70.0469153 44.6639498,69.3712515 C42.9403407,70.5262985 41.3766899,72.144969 40.3505803,73.4799638 C37.8335547,76.7264741 37.5715939,79.5127994 37.5686961,79.5405938 C37.4527843,80.8432095 37.7961731,81.5074117 37.9349775,81.7174463 C38.82576,82.0289164 40.3047951,81.4182974 40.7727892,81.1678605 C43.3808057,79.8294272 46.6138767,76.5854959 48.8431512,74.130412 C49.1836423,73.27566 49.5786119,72.4604507 50.0495037,71.6455279 C50.7032465,70.4818847 51.5088338,69.3675265 52.4393161,68.3385575 C53.3408205,67.3419677 54.5660086,66.049381 56.0467824,64.8900358 C56.884825,64.2272663 57.999897,63.6782537 58.2105667,63.5773912 C59.2659441,62.9192064 60.5942938,62.7478548 61.29614,62.7045871 C62.7751751,62.6309461 63.8537348,63.7527543 63.8989404,63.8003201 C64.9088223,64.8610952 65.2913314,66.0966602 65.3072693,66.1488107 C65.5335871,66.820463 65.1067418,67.3737738 64.5877465,67.5451253 L64.5877465,67.5451253 L64.4758916,67.5700544 C64.450391,67.5734929 64.4248904,67.5760717 64.4005489,67.577791 C64.7989958,67.8176259 65.0453085,68.0757994 65.1192023,68.1588963 C65.9865127,69.0305542 66.0299796,70.2881829 66.0276614,70.578449 C66.143863,71.4672994 65.9349319,72.4905375 65.6069014,73.4576136 L65.6069014,73.4576136 L69.735971,68.0680627 C68.6690025,66.7147293 68.9182129,64.7791444 68.9300939,64.6894571 C69.2067755,62.2811749 71.1908951,60.1272445 71.6669629,59.6413186 L71.7447232,59.5632374 C72.6836091,58.4743814 73.9389344,58.8603522 74.5025557,59.2340018 C75.9352261,60.0148262 76.3099111,61.2761799 76.3794582,61.5673056 C76.5854915,62.1741996 76.1224237,63.0108995 75.9074072,63.3507372 C75.7891771,63.5361293 75.6842769,63.6983115 75.5909679,63.8407224 L75.5909679,63.8407224 L76.5040634,63.6346994 C77.4406311,63.4192205 78.3183735,63.8662246 78.4145804,63.9180885 C80.2370043,64.9387478 81.1014169,65.9637052 81.1376393,66.0066863 C81.9038166,66.8906655 81.8710715,67.7883987 81.8484687,68.0130469 C81.8287637,68.624812 81.3306325,69.1784094 81.1805267,69.3322819 C78.6800185,72.368471 76.37714,75.6078178 76.3539576,75.6399104 C74.7987105,77.6345227 73.4941227,79.6520583 72.9336889,80.9263064 C72.878341,81.0604076 72.8325558,81.1879184 72.7951743,81.3079791 C72.9473086,81.1836203 73.0701751,81.0661385 73.137404,80.9950763 L73.1736264,80.9598317 C77.6883927,78.0267974 80.1897702,74.3774104 80.2091855,74.3435986 C80.5812625,73.6879926 80.9205944,73.090841 81.2268914,72.5509977 C81.2268914,72.5509977 85.2406287,64.643324 86.0207154,63.3329717 C86.4136566,62.7590299 87.0937693,62.7404048 87.5461153,63.0194957 C88.1839202,63.4212263 89.2207516,64.0473185 89.2219107,64.0478916 C90.1297902,64.6287104 90.5572152,65.1287245 90.6908036,65.3040876 C91.4445203,66.035627 91.2051624,67.0588651 90.9385651,67.5560139 L90.9385651,67.5560139 L90.9208886,67.5872468 C90.010401,69.0592083 89.2758098,70.2328805 88.6861083,71.1658582 C91.3885929,68.4348353 93.0893094,66.4307671 93.1113326,66.4044053 L93.1113326,66.4044053 L95.4121827,63.8444475 C95.9332064,63.0610442 96.4246726,62.8719271 96.675332,62.8292325 C97.2114242,62.6845292 97.7733069,63.1091831 97.9978861,63.3063234 C99.6852727,64.7292863 100.307719,65.5106838 100.485354,65.7599745 C101.124318,66.3479567 100.961462,67.270619 100.525054,67.8990035 L100.525054,67.8990035 L100.493468,67.9402654 C94.2264045,75.4017947 92.1084054,79.7772768 91.4450999,81.4793307 C91.4450999,81.4793307 91.3749732,81.6028299 91.460748,81.7489658 C91.5268177,81.7071308 92.1594066,81.3260312 93.7349383,80.4222807 C97.2772042,78.442282 100.315833,77.2743406 103.477329,76.6668735 C105.511871,76.2754584 105.88163,76.6731774 105.982763,77.0061381 L105.982763,77.0061381 L105.995224,77.0660252 C106.084186,77.8227802 104.915795,78.1901258 103.71234,78.501596 L103.636482,78.521102 C103.587992,78.5335612 103.543881,78.5449592 103.505437,78.5554657 C99.4488126,79.8351581 96.5594201,82.2280625 94.6480339,83.8117749 C93.5448429,84.7249813 92.816337,85.3287233 92.2335902,85.4404743 C92.1678102,85.4530822 92.065518,85.4565206 91.9979994,85.4565206 C91.2295038,85.4364628 90.1726776,84.6384459 89.8411698,84.3622203 L89.8411698,84.3622203 L88.5307864,83.4604756 C87.0300178,82.3635964 87.0039376,80.5377567 87.0068354,80.3005007 L87.0060686,80.1119101 C87.0431854,78.3945652 88.2403548,76.1689777 88.2931671,76.0714412 C88.6458289,75.3562347 89.1077376,74.5186752 89.5812375,73.6974485 C83.2452064,80.2715601 81.4566867,82.5154632 81.4369816,82.5403922 C80.4957775,83.742432 80.2338167,84.2117863 80.1686163,84.3467471 L80.1686163,84.3467471 L80.1686163,84.4238267 L80.0712504,84.5679568 C80.0666139,84.5822839 80.0538636,84.6607961 80.0527045,84.7138062 C80.0527045,85.3049404 79.604995,85.6264395 79.1833657,85.6264395 C78.5843912,85.6264395 78.1702962,85.2175454 78.0648164,85.1014963 C77.1575164,84.2006112 76.8558559,83.5372686 76.7941328,83.3845422 C76.0595415,81.7730353 77.0088595,79.9870248 77.0500082,79.911378 C77.155488,79.7254128 77.2595189,79.5423131 77.3618111,79.3612191 L77.359,79.365 L77.2636411,79.5205515 C76.3220033,81.08108 74.6838853,84.6377076 73.550148,85.1646047 L73.4306609,85.2092357 C72.2002567,85.5502196 71.4291532,84.8596556 70.4520164,84.1008949 C68.9257472,82.915188 68.1137847,81.4059762 68.1137847,79.723407 C68.1137847,78.7422904 68.3618361,77.2049976 69.5441369,75.4513663 C72.023781,71.789085 73.8094029,69.5122297 74.9383842,68.1835388 C73.4976,68.7262476 72.4735189,68.9746787 72.0371108,69.0678045 L72.0371108,69.0678045 L64.2823188,78.4697899 C62.6137678,80.2598119 59.4458972,82.9765077 56.343227,84.3997572 C56.2968622,84.4221074 56.2504975,84.4438845 56.2050021,84.464802 L56.2050021,84.464802 L56.1537111,84.4885849 C56.1299492,84.499187 56.109085,84.5074966 56.0864822,84.517239 C54.5439854,85.1994933 53.3828385,85.2891807 52.8913723,85.2891807 C52.7516985,85.2891807 52.6662135,85.2823037 52.6412925,85.2797248 C51.3984278,85.1261388 50.7982942,84.6860117 50.5534304,84.440446 C47.8854296,83.261043 47.7228633,79.9609496 47.7138801,79.639164 C47.7080845,79.5709672 47.706056,79.5004781 47.7031582,79.429989 C46.0279424,81.6019703 45.1730925,82.566754 45.0322596,82.723492 C42.9722164,85.4232819 40.5145956,85.4542283 40.4105647,85.4542283 C38.1925916,85.3900431 36.339451,83.2808144 36.2612105,83.191127 L36.2612105,83.191127 L34.5799093,81.2415016 C33.4202113,79.8397427 33.3431299,78.3216482 33.3408117,78.257463 C33.3402321,78.2514456 33.3402321,78.2460013 33.3396526,78.239984 C30.1115078,82.7808002 29.014692,84.1412972 28.8747284,84.3115026 C28.016691,85.4980691 26.7851277,85.5115365 26.7332571,85.5115365 C24.9722665,85.4516494 23.7012931,84.0693754 23.4300594,83.749309 C21.2013645,82.0549917 21.1141408,79.5572132 21.1118226,79.4509065 C21.0892197,78.808768 21.2578715,78.0210666 21.4838996,77.2709021 C15.7535079,79.4818529 11.5688006,82.9389709 8.70896568,85.3072328 C6.88103593,86.8210292 5.67381409,87.8210575 4.70826845,88.0064496 C4.59960109,88.0276536 4.48919506,88.0376825 4.37762992,88.0376825 C2.50768212,88.0376825 0.344477372,85.2106684 0.0457145986,83.6897084 C-0.100913882,82.9449882 0.111784349,82.078488 0.589051358,81.4541151 C1.86987721,78.2480071 3.44106223,75.1934794 5.10323805,71.9615827 L5.10323805,71.9615827 L5.7517648,70.6987963 C8.5907356,65.2261485 11.6435637,60.1260041 14.5958384,55.1934862 C17.4040925,50.5016628 20.3082637,45.6508092 23.0973924,40.3793132 C23.2915447,39.7804424 23.3445744,39.400489 23.2808229,39.0758379 C23.2666237,39.0039161 23.2222874,38.9064922 23.1709964,38.7938815 C23.0933355,38.6239627 22.9965491,38.4122088 22.9461275,38.1534623 L22.9461275,38.1534623 L22.9281611,38.0623422 L22.9400421,37.9697894 C23.000606,37.5147622 23.3593532,37.1110259 23.7754767,37.0307944 Z M61.9866848,67.7740716 C61.8910575,67.8032988 61.678649,67.9156229 61.678649,67.9156229 C58.2409936,69.7053584 55.1673013,73.7163602 55.1316584,73.7636395 C51.4607304,78.8640704 51.7481918,81.7475331 51.9084399,82.4744878 L51.9084399,82.4744878 L51.96089,82.4790725 C52.6140532,82.5679002 54.4185108,81.2864885 55.7155643,80.0552216 C56.9737874,78.86493 60.4783819,74.3805624 61.540714,71.4498204 L61.540714,71.4498204 L61.5525949,71.4200201 C62.1376599,70.0515 62.2017012,68.7660768 62.2022808,68.7531824 C62.2457477,68.2007313 62.0965112,67.8660513 61.9866848,67.7740716 Z M37.9248932,52.3979916 C38.3317438,52.1398181 38.899422,52.3467008 39.2207876,52.505731 L39.2207876,52.505731 L39.3091704,52.5598873 C39.4856462,52.69055 40.0976607,53.0836844 40.318183,53.2240895 C41.1185542,53.7676579 41.4622328,54.1312785 41.5894461,54.2877299 C42.1043845,54.7593765 42.0383147,55.4204267 42.028752,55.4963601 L42.028752,55.4963601 L42.0157119,55.5642704 C41.8702425,56.1402179 41.4190557,56.6620092 41.3680545,56.7196039 L41.3680545,56.7196039 L41.3416845,56.7473984 L34.9737777,61.8200349 C34.7836823,61.9701824 34.5741716,62.034081 34.3710361,62.034081 C34.1305191,62.034081 33.8989852,61.9449668 33.7178729,61.8042751 C33.5671875,61.7246167 33.4501165,61.5973925 33.3799899,61.4352102 C33.1823602,60.9781772 33.4417129,60.3179866 33.6935314,59.8446208 C35.4261237,56.4181627 36.2653254,54.794048 36.6637724,54.0370065 C36.8515495,53.6796898 36.9851379,53.4258144 37.0961235,53.2495916 C37.3062138,52.721783 37.714803,52.4871059 37.9248932,52.3979916 Z" id="Logo-Licorn"></path>
                </g>
            </g>
        </g>
    </g>
</svg>