<?xml version="1.0" encoding="UTF-8"?>
<svg width="14px" height="11px" viewBox="0 0 14 11" version="1.1" xmlns="http://www.w3.org/2000/svg" xmlns:xlink="http://www.w3.org/1999/xlink">
    <!-- Generator: sketchtool 59.1 (101010) - https://sketch.com -->
    <title>2CDD0E31-0A18-4E23-A440-7F02B66C02A5</title>
    <desc>Created with sketchtool.</desc>
    <g id="Page-1" stroke="none" stroke-width="1" fill="none" fill-rule="evenodd">
        <g id="Maquette_test" transform="translate(-482.000000, -906.000000)" fill="#353535" fill-rule="nonzero">
            <g id="HEADER" transform="translate(-13.000000, 0.000000)">
                <g id="Icon_Twitter" transform="translate(488.000000, 897.000000)">
                    <path d="M21,10.3022308 C20.479375,10.5230769 19.924625,10.6694615 19.34625,10.7405385 C19.94125,10.397 20.395375,9.85715385 20.608875,9.20646154 C20.054125,9.52630769 19.441625,9.75223077 18.788875,9.87830769 C18.262125,9.33592308 17.511375,9 16.692375,9 C15.103375,9 13.824125,10.2472308 13.824125,11.7762308 C13.824125,11.9962308 13.843375,12.2077692 13.890625,12.4091538 C11.5045,12.2966154 9.393125,11.1906923 7.97475,9.506 C7.727125,9.92146154 7.581875,10.397 7.581875,10.9089231 C7.581875,11.8701538 8.09375,12.7222308 8.85675,13.2155385 C8.395625,13.2070769 7.94325,13.0776154 7.56,12.8736923 C7.56,12.8821538 7.56,12.8931538 7.56,12.9041538 C7.56,14.2529231 8.554875,15.3732308 9.8595,15.6313077 C9.625875,15.6930769 9.37125,15.7226923 9.107,15.7226923 C8.92325,15.7226923 8.73775,15.7125385 8.563625,15.6753077 C8.9355,16.7744615 9.99075,17.5825385 11.2455,17.6087692 C10.269,18.3474615 9.029125,18.7925385 7.686875,18.7925385 C7.4515,18.7925385 7.22575,18.7823846 7,18.7544615 C8.271375,19.5473077 9.778125,20 11.403,20 C16.6845,20 19.572,15.7692308 19.572,12.102 C19.572,11.9793077 19.567625,11.8608462 19.5615,11.7432308 C20.131125,11.3523077 20.60975,10.8640769 21,10.3022308 Z" id="Twitter"></path>
                </g>
            </g>
        </g>
    </g>
</svg>